<?xml version="1.0" encoding="UTF-8" standalone="no"?>
<!-- Created with Inkscape (http://www.inkscape.org/) -->

<svg
   xmlns:ns0="http://www.iki.fi/pav/software/textext/"
   xmlns:dc="http://purl.org/dc/elements/1.1/"
   xmlns:cc="http://creativecommons.org/ns#"
   xmlns:rdf="http://www.w3.org/1999/02/22-rdf-syntax-ns#"
   xmlns:svg="http://www.w3.org/2000/svg"
   xmlns="http://www.w3.org/2000/svg"
   xmlns:sodipodi="http://sodipodi.sourceforge.net/DTD/sodipodi-0.dtd"
   xmlns:inkscape="http://www.inkscape.org/namespaces/inkscape"
   width="744.09448819"
   height="1052.3622047"
   id="svg15853"
   version="1.1"
   inkscape:version="0.48.2 r9819"
   sodipodi:docname="sphere_rhohat_horizontal.svg"
   inkscape:export-filename="C:\Users\Jim\Documents\Latex_Docs\AtmosphericAttenuation\sphere_rhohat_horizontal2.png"
   inkscape:export-xdpi="90"
   inkscape:export-ydpi="90">
  <sodipodi:namedview
     id="base"
     pagecolor="#ffffff"
     bordercolor="#666666"
     borderopacity="1.0"
     inkscape:pageopacity="0.0"
     inkscape:pageshadow="2"
     inkscape:zoom="0.7"
     inkscape:cx="488.46852"
     inkscape:cy="668.31611"
     inkscape:document-units="px"
     inkscape:current-layer="layer1"
     showgrid="false"
     inkscape:window-width="1366"
     inkscape:window-height="706"
     inkscape:window-x="-8"
     inkscape:window-y="-8"
     inkscape:window-maximized="1" />
  <defs
     id="defs15855">
    <marker
       style="overflow:visible;"
       id="Arrow1Mend"
       refX="0.0"
       refY="0.0"
       orient="auto"
       inkscape:stockid="Arrow1Mend">
      <path
         transform="scale(0.4) rotate(180) translate(10,0)"
         style="fill-rule:evenodd;stroke:#000000;stroke-width:1.0pt;marker-start:none;"
         d="M 0.0,0.0 L 5.0,-5.0 L -12.5,0.0 L 5.0,5.0 L 0.0,0.0 z "
         id="path13237" />
    </marker>
    <marker
       style="overflow:visible;"
       id="Arrow1Lend"
       refX="0.0"
       refY="0.0"
       orient="auto"
       inkscape:stockid="Arrow1Lend">
      <path
         transform="scale(0.8) rotate(180) translate(12.5,0)"
         style="fill-rule:evenodd;stroke:#000000;stroke-width:1.0pt;marker-start:none;"
         d="M 0.0,0.0 L 5.0,-5.0 L -12.5,0.0 L 5.0,5.0 L 0.0,0.0 z "
         id="path13231" />
    </marker>
    <inkscape:perspective
       id="perspective16536"
       inkscape:persp3d-origin="-456.76528 : 291.17877 : 1"
       inkscape:vp_z="1242.4546 : 1105.0044 : 0"
       inkscape:vp_y="1.7492658e-013 : 5240.7391 : 0"
       inkscape:vp_x="-1175.073 : -5.9819626 : 0"
       sodipodi:type="inkscape:persp3d" />
    <marker
       style="overflow:visible;"
       id="Arrow1Mendc"
       refX="0.0"
       refY="0.0"
       orient="auto"
       inkscape:stockid="Arrow1Mendc">
      <path
         transform="scale(0.4) rotate(180) translate(10,0)"
         style="marker-start:none;stroke:#ff6600;stroke-width:1.0pt;fill:#ff6600;fill-rule:evenodd"
         d="M 0.0,0.0 L 5.0,-5.0 L -12.5,0.0 L 5.0,5.0 L 0.0,0.0 z "
         id="path16966" />
    </marker>
    <marker
       style="overflow:visible"
       id="Arrow1Mendc-7"
       refX="0"
       refY="0"
       orient="auto"
       inkscape:stockid="Arrow1Mendc">
      <path
         inkscape:connector-curvature="0"
         transform="matrix(-0.4,0,0,-0.4,-4,0)"
         style="fill:#ff6600;fill-rule:evenodd;stroke:#ff6600;stroke-width:1pt;marker-start:none"
         d="M 0,0 5,-5 -12.5,0 5,5 0,0 z"
         id="path16966-7" />
    </marker>
    <marker
       style="overflow:visible"
       id="Arrow1Mendc-3"
       refX="0"
       refY="0"
       orient="auto"
       inkscape:stockid="Arrow1Mendc">
      <path
         inkscape:connector-curvature="0"
         transform="matrix(-0.4,0,0,-0.4,-4,0)"
         style="fill:#ff6600;fill-rule:evenodd;stroke:#ff6600;stroke-width:1pt;marker-start:none"
         d="M 0,0 5,-5 -12.5,0 5,5 0,0 z"
         id="path16966-1" />
    </marker>
    <marker
       style="overflow:visible"
       id="Arrow1Mendc-6"
       refX="0"
       refY="0"
       orient="auto"
       inkscape:stockid="Arrow1Mendc">
      <path
         inkscape:connector-curvature="0"
         transform="matrix(-0.4,0,0,-0.4,-4,0)"
         style="fill:#ff6600;fill-rule:evenodd;stroke:#ff6600;stroke-width:1pt;marker-start:none"
         d="M 0,0 5,-5 -12.5,0 5,5 0,0 z"
         id="path16966-5" />
    </marker>
    <marker
       style="overflow:visible"
       id="Arrow1Mendc-2"
       refX="0"
       refY="0"
       orient="auto"
       inkscape:stockid="Arrow1Mendc">
      <path
         inkscape:connector-curvature="0"
         transform="matrix(-0.4,0,0,-0.4,-4,0)"
         style="fill:#ff6600;fill-rule:evenodd;stroke:#ff6600;stroke-width:1pt;marker-start:none"
         d="M 0,0 5,-5 -12.5,0 5,5 0,0 z"
         id="path16966-8" />
    </marker>
    <marker
       style="overflow:visible"
       id="Arrow1Mendc-0"
       refX="0"
       refY="0"
       orient="auto"
       inkscape:stockid="Arrow1Mendc">
      <path
         inkscape:connector-curvature="0"
         transform="matrix(-0.4,0,0,-0.4,-4,0)"
         style="fill:#ff6600;fill-rule:evenodd;stroke:#ff6600;stroke-width:1pt;marker-start:none"
         d="M 0,0 5,-5 -12.5,0 5,5 0,0 z"
         id="path16966-2" />
    </marker>
    <marker
       style="overflow:visible"
       id="marker17074"
       refX="0"
       refY="0"
       orient="auto"
       inkscape:stockid="Arrow1Mendc">
      <path
         inkscape:connector-curvature="0"
         transform="matrix(-0.4,0,0,-0.4,-4,0)"
         style="fill:#ff6600;fill-rule:evenodd;stroke:#ff6600;stroke-width:1pt;marker-start:none"
         d="M 0,0 5,-5 -12.5,0 5,5 0,0 z"
         id="path17076" />
    </marker>
    <marker
       style="overflow:visible"
       id="marker17078"
       refX="0"
       refY="0"
       orient="auto"
       inkscape:stockid="Arrow1Mendc">
      <path
         inkscape:connector-curvature="0"
         transform="matrix(-0.4,0,0,-0.4,-4,0)"
         style="fill:#ff6600;fill-rule:evenodd;stroke:#ff6600;stroke-width:1pt;marker-start:none"
         d="M 0,0 5,-5 -12.5,0 5,5 0,0 z"
         id="path17080" />
    </marker>
    <marker
       style="overflow:visible"
       id="marker17082"
       refX="0"
       refY="0"
       orient="auto"
       inkscape:stockid="Arrow1Mendc">
      <path
         inkscape:connector-curvature="0"
         transform="matrix(-0.4,0,0,-0.4,-4,0)"
         style="fill:#ff6600;fill-rule:evenodd;stroke:#ff6600;stroke-width:1pt;marker-start:none"
         d="M 0,0 5,-5 -12.5,0 5,5 0,0 z"
         id="path17084" />
    </marker>
    <marker
       style="overflow:visible"
       id="marker17086"
       refX="0"
       refY="0"
       orient="auto"
       inkscape:stockid="Arrow1Mendc">
      <path
         inkscape:connector-curvature="0"
         transform="matrix(-0.4,0,0,-0.4,-4,0)"
         style="fill:#ff6600;fill-rule:evenodd;stroke:#ff6600;stroke-width:1pt;marker-start:none"
         d="M 0,0 5,-5 -12.5,0 5,5 0,0 z"
         id="path17088" />
    </marker>
    <marker
       style="overflow:visible"
       id="Arrow1Mendc-4"
       refX="0"
       refY="0"
       orient="auto"
       inkscape:stockid="Arrow1Mendc">
      <path
         inkscape:connector-curvature="0"
         transform="matrix(-0.4,0,0,-0.4,-4,0)"
         style="fill:#ff6600;fill-rule:evenodd;stroke:#ff6600;stroke-width:1pt;marker-start:none"
         d="M 0,0 5,-5 -12.5,0 5,5 0,0 z"
         id="path16966-9" />
    </marker>
    <marker
       style="overflow:visible"
       id="Arrow1Mstart"
       refX="0"
       refY="0"
       orient="auto"
       inkscape:stockid="Arrow1Mstart">
      <path
         inkscape:connector-curvature="0"
         transform="matrix(0.4,0,0,0.4,4,0)"
         style="fill-rule:evenodd;stroke:#000000;stroke-width:1pt;marker-start:none"
         d="M 0,0 5,-5 -12.5,0 5,5 0,0 z"
         id="path3887" />
    </marker>
    <marker
       style="overflow:visible"
       id="Arrow1Mend-1"
       refX="0"
       refY="0"
       orient="auto"
       inkscape:stockid="Arrow1Mend">
      <path
         inkscape:connector-curvature="0"
         transform="matrix(-0.4,0,0,-0.4,-4,0)"
         style="fill-rule:evenodd;stroke:#000000;stroke-width:1pt;marker-start:none"
         d="M 0,0 5,-5 -12.5,0 5,5 0,0 z"
         id="path3890-7" />
    </marker>
  </defs>
  <metadata
     id="metadata15858">
    <rdf:RDF>
      <cc:Work
         rdf:about="">
        <dc:format>image/svg+xml</dc:format>
        <dc:type
           rdf:resource="http://purl.org/dc/dcmitype/StillImage" />
        <dc:title></dc:title>
      </cc:Work>
    </rdf:RDF>
  </metadata>
  <g
     id="layer1"
     inkscape:groupmode="layer"
     inkscape:label="Layer 1">
    <path
       inkscape:export-ydpi="90"
       inkscape:export-xdpi="90"
       inkscape:export-filename="C:\Users\Jim\Documents\Latex_Docs\AtmosphericAttenuation\sphere_rhohat_horizontalpng.png"
       transform="matrix(4.4507531,-0.10012138,-0.91691214,0.96573082,1024.826,179.03572)"
       d="M 22.857145,329.50505 -194.28572,318.07647 -182.85714,100.93361 34.285717,112.36219 z"
       inkscape:randomized="0"
       inkscape:rounded="0"
       inkscape:flatsided="true"
       sodipodi:arg2="1.6233794"
       sodipodi:arg1="0.83798123"
       sodipodi:r2="108.7217"
       sodipodi:r1="153.75571"
       sodipodi:cy="215.21933"
       sodipodi:cx="-80"
       sodipodi:sides="4"
       id="path16386"
       style="opacity:0.27433627;fill:#ffeeaa;fill-opacity:1;fill-rule:nonzero;stroke:none"
       sodipodi:type="star" />
    <path
       inkscape:export-ydpi="90"
       inkscape:export-xdpi="90"
       inkscape:export-filename="C:\Users\Jim\Documents\Latex_Docs\AtmosphericAttenuation\sphere_rhohat_horizontalpng.png"
       transform="translate(-4.2857286,-70.000004)"
       sodipodi:type="arc"
       style="fill:none;fill-opacity:1;fill-rule:nonzero;stroke:#000000;stroke-width:3;stroke-miterlimit:4;stroke-dasharray:none"
       id="path3100"
       sodipodi:cx="398.57144"
       sodipodi:cy="505.21933"
       sodipodi:rx="292.85715"
       sodipodi:ry="292.85715"
       d="m 691.42859,505.21933 a 292.85715,292.85715 0 1 1 -585.7143,0 292.85715,292.85715 0 1 1 585.7143,0 z" />
    <path
       inkscape:export-ydpi="90"
       inkscape:export-xdpi="90"
       inkscape:export-filename="C:\Users\Jim\Documents\Latex_Docs\AtmosphericAttenuation\sphere_rhohat_horizontalpng.png"
       transform="matrix(1.0585105,0,0,7.9285722,-26.010639,-2230.8562)"
       d="m 664.28574,329.50504 a 268.57144,10 0 1 1 -537.14289,0 268.57144,10 0 1 1 537.14289,0 z"
       sodipodi:ry="10"
       sodipodi:rx="268.57144"
       sodipodi:cy="329.50504"
       sodipodi:cx="395.71429"
       id="path16376"
       style="opacity:0.69469029999999998;fill:#ffeeaa;stroke:#000000;stroke-width:1.03556227999999990;stroke-linecap:butt;stroke-linejoin:miter;stroke-miterlimit:4;stroke-opacity:1;stroke-dasharray:4.14224860000000030, 1.03556215000000010;stroke-dashoffset:0"
       sodipodi:type="arc" />
    <path
       inkscape:export-ydpi="90"
       inkscape:export-xdpi="90"
       inkscape:export-filename="C:\Users\Jim\Documents\Latex_Docs\AtmosphericAttenuation\sphere_rhohat_horizontalpng.png"
       inkscape:connector-curvature="0"
       id="path16566"
       d="M 125.5174,613.366 590.30146,196.26937"
       style="fill:none;stroke:#000000;stroke-width:1.00000012px;stroke-linecap:butt;stroke-linejoin:miter;stroke-opacity:1" />
    <path
       inkscape:export-ydpi="90"
       inkscape:export-xdpi="90"
       inkscape:export-filename="C:\Users\Jim\Documents\Latex_Docs\AtmosphericAttenuation\sphere_rhohat_horizontalpng.png"
       inkscape:connector-curvature="0"
       id="path16584-4"
       d="m 739.01872,301.6479 -265.71429,0"
       style="fill:none;stroke:#ff6600;stroke-width:5;stroke-linecap:butt;stroke-linejoin:miter;stroke-miterlimit:4;stroke-opacity:1;stroke-dasharray:none;marker-end:url(#Arrow1Mendc)" />
    <path
       inkscape:export-ydpi="90"
       inkscape:export-xdpi="90"
       inkscape:export-filename="C:\Users\Jim\Documents\Latex_Docs\AtmosphericAttenuation\sphere_rhohat_horizontalpng.png"
       inkscape:connector-curvature="0"
       id="path16584-9-8"
       d="m 914.24106,340.21932 -265.71429,0"
       style="fill:none;stroke:#ff6600;stroke-width:5;stroke-linecap:butt;stroke-linejoin:miter;stroke-miterlimit:4;stroke-opacity:1;stroke-dasharray:none;marker-end:url(#Arrow1Mendc)" />
    <path
       inkscape:export-ydpi="90"
       inkscape:export-xdpi="90"
       inkscape:export-filename="C:\Users\Jim\Documents\Latex_Docs\AtmosphericAttenuation\sphere_rhohat_horizontalpng.png"
       inkscape:connector-curvature="0"
       id="path16584-98-6"
       d="m 951.38392,375.93362 -265.71429,0"
       style="fill:none;stroke:#ff6600;stroke-width:5;stroke-linecap:butt;stroke-linejoin:miter;stroke-miterlimit:4;stroke-opacity:1;stroke-dasharray:none;marker-end:url(#Arrow1Mendc)" />
    <path
       inkscape:export-ydpi="90"
       inkscape:export-xdpi="90"
       inkscape:export-filename="C:\Users\Jim\Documents\Latex_Docs\AtmosphericAttenuation\sphere_rhohat_horizontalpng.png"
       inkscape:connector-curvature="0"
       id="path16584-0-5"
       d="m 931.38392,408.79076 -265.71429,0"
       style="fill:none;stroke:#ff6600;stroke-width:5;stroke-linecap:butt;stroke-linejoin:miter;stroke-miterlimit:4;stroke-opacity:1;stroke-dasharray:none;marker-end:url(#Arrow1Mendc)" />
    <path
       inkscape:export-ydpi="90"
       inkscape:export-xdpi="90"
       inkscape:export-filename="C:\Users\Jim\Documents\Latex_Docs\AtmosphericAttenuation\sphere_rhohat_horizontalpng.png"
       inkscape:connector-curvature="0"
       id="path16584-6-0"
       d="m 847.09821,445.93361 -265.71429,0"
       style="fill:none;stroke:#ff6600;stroke-width:5;stroke-linecap:butt;stroke-linejoin:miter;stroke-miterlimit:4;stroke-opacity:1;stroke-dasharray:none;marker-end:url(#Arrow1Mendc)" />
    <path
       inkscape:export-ydpi="90"
       inkscape:export-xdpi="90"
       inkscape:export-filename="C:\Users\Jim\Documents\Latex_Docs\AtmosphericAttenuation\sphere_rhohat_horizontalpng.png"
       inkscape:connector-curvature="0"
       id="path16584-4-6"
       d="m 574.69009,459.62759 -265.71429,0"
       style="fill:none;stroke:#ff6600;stroke-width:5;stroke-linecap:butt;stroke-linejoin:miter;stroke-miterlimit:4;stroke-opacity:1;stroke-dasharray:none;marker-end:url(#Arrow1Mendc)" />
    <path
       inkscape:export-ydpi="90"
       inkscape:export-xdpi="90"
       inkscape:export-filename="C:\Users\Jim\Documents\Latex_Docs\AtmosphericAttenuation\sphere_rhohat_horizontalpng.png"
       sodipodi:type="arc"
       style="opacity:0.21681417000000000;fill:none;fill-opacity:1;fill-rule:nonzero;stroke:#000000;stroke-width:3.26888375;stroke-miterlimit:4;stroke-dasharray:6.5377675,3.26888375;stroke-dashoffset:0"
       id="path17221"
       sodipodi:cx="397.85715"
       sodipodi:cy="425.93362"
       sodipodi:rx="63.57143"
       sodipodi:ry="282.14285"
       d="m 461.42858,425.93362 a 63.57143,282.14285 0 1 1 -127.14286,0 63.57143,282.14285 0 1 1 127.14286,0 z"
       transform="matrix(1.4382022,0,0,1.0411207,-178.79221,-8.5248033)" />
    <path
       inkscape:export-ydpi="90"
       inkscape:export-xdpi="90"
       inkscape:export-filename="C:\Users\Jim\Documents\Latex_Docs\AtmosphericAttenuation\sphere_rhohat_horizontalpng.png"
       style="opacity:0.21238938;fill:#000000;fill-opacity:1;fill-rule:nonzero;stroke:none"
       d="M 363.7765,724.61884 C 296.68249,717.14795 236.88681,688.69529 189.95679,641.90996 174.39626,626.3974 167.27039,618.06438 156.24495,602.48718 l -6.7739,-9.57043 3.36162,-3.04409 c 43.4718,-39.36572 146.81533,-131.41478 147.79301,-131.64064 1.00852,-0.23299 1.47718,2.32859 1.94054,10.6066 3.90931,69.84028 10.65973,117.31317 22.95409,161.4265 12.95463,46.48245 31.42446,80.62611 49.97981,92.39356 l 4.83435,3.06586 -4.49091,-0.13106 c -2.47001,-0.0721 -7.90019,-0.51067 -12.06706,-0.97464 z"
       id="path17427"
       inkscape:connector-curvature="0" />
    <path
       inkscape:export-ydpi="90"
       inkscape:export-xdpi="90"
       inkscape:export-filename="C:\Users\Jim\Documents\Latex_Docs\AtmosphericAttenuation\sphere_rhohat_horizontalpng.png"
       style="opacity:0.21238936;fill:#000000;fill-opacity:1;fill-rule:nonzero;stroke:none"
       d="m 145.64825,586.6985 c -1.71706,-2.70638 -6.8862,-12.42108 -11.48699,-21.58822 -26.83104,-53.46124 -35.993774,-110.03169 -27.85542,-171.97847 0.69929,-5.3228 1.62398,-8.83883 2.32455,-8.83883 1.36826,0 3.72638,-11.45882 2.45992,-11.95347 -1.54466,-0.60331 -0.90751,-2.18706 0.90566,-2.2512 2.60415,-0.0921 8.82818,-8.94783 7.31959,-10.41451 -0.87751,-0.85311 -1.91345,-0.26025 -4.11967,2.35767 -3.61034,4.28405 -3.6493,3.36324 -0.34386,-8.12627 13.87035,-48.21251 40.09875,-91.53592 77.3281,-127.72861 45.26131,-44.001 103.66874,-71.94969 166.65786,-79.74789 6.84988,-0.84803 14.22216,-1.54188 16.38286,-1.54188 l 3.92853,0 -4.90852,3.36799 c -24.19294,16.59999 -46.63659,69.26782 -59.61384,139.89396 -2.79498,15.21115 -2.89203,15.48725 -5.63658,16.03617 -3.52172,0.70434 -3.71736,3.33644 -0.24801,3.33644 2.11127,0 2.4608,0.38707 2.05242,2.27285 -3.79909,17.54294 -7.58817,66.91921 -8.31379,108.33886 l -0.6194,35.35534 -3.13523,3.15766 c -1.72438,1.73672 -34.72775,31.4615 -73.34083,66.05506 -38.61308,34.59357 -71.64781,64.25205 -73.41051,65.90773 l -3.20492,3.01032 -3.12192,-4.9207 0,0 z M 297.10643,456.1389 c 0,-1.57663 -0.97641,-1.9781 -5.80838,-2.38823 -3.65753,-0.31044 -6.07335,-0.0793 -6.52393,0.62409 -1.0247,1.59971 0.20608,2.44529 4.25109,2.9206 7.53325,0.88518 8.08122,0.80676 8.08122,-1.15646 l 0,0 z m -15.15229,-1.62108 c 0,-1.50637 -1.38012,-1.99006 -8.33376,-2.92075 -3.20805,-0.42938 -3.78807,-0.21766 -3.78807,1.38269 0,1.93601 1.92544,2.56397 8.83883,2.8827 2.29415,0.10576 3.283,-0.29925 3.283,-1.34464 l 0,0 z m -14.80125,-2.00239 c 0.41502,-1.08152 -0.43678,-1.6349 -3.17492,-2.0626 -2.05816,-0.32148 -4.99217,-0.78141 -6.52003,-1.02205 -2.21296,-0.34855 -2.77792,-0.0455 -2.77792,1.49043 0,1.32776 0.86478,2.05895 2.77792,2.34877 6.1449,0.93087 9.13758,0.69796 9.69495,-0.75455 l 0,0 z m -14.49317,-1.94938 c 0,-1.68649 -1.31465,-2.25237 -7.32757,-3.15406 -3.04406,-0.45649 -4.79614,-0.29358 -5.28106,0.49102 -1.00273,1.62245 -0.14536,2.24602 4.26372,3.10107 6.15698,1.19403 8.34491,1.07917 8.34491,-0.43803 z m -15.15229,-2.52104 c 0,-1.4092 -0.99014,-2.08732 -3.78807,-2.59435 -2.08344,-0.37756 -4.81086,-0.93199 -6.06092,-1.23208 -1.77185,-0.42535 -2.27284,-0.10747 -2.27284,1.44212 0,1.9044 1.38577,2.41162 11.36421,4.15949 0.41669,0.0729 0.75762,-0.72585 0.75762,-1.77518 l 0,0 z m -14.73151,-2.78239 c 0.8047,-2.09701 1.07233,-1.93337 -5.39414,-3.29842 -3.74701,-0.79098 -5.80619,-0.82872 -6.51548,-0.11943 -1.80647,1.80647 1.82142,3.50358 10.62315,4.96949 0.35725,0.0595 0.93616,-0.63874 1.28647,-1.55164 l 0,0 z M 208.213,441.40553 c 0,-0.88938 -1.70676,-1.91726 -4.29314,-2.58551 -2.36124,-0.61006 -5.08865,-1.34007 -6.06092,-1.62223 -1.25855,-0.36524 -1.76777,0.0596 -1.76777,1.475 0,1.44499 1.03475,2.26286 3.78808,2.99413 5.66981,1.50589 8.33375,1.42233 8.33375,-0.26139 l 0,0 z m -14.3626,-3.69262 c 0.18794,-0.96804 -1.18451,-1.85993 -4.04061,-2.6258 -2.37887,-0.6379 -5.12071,-1.46652 -6.09299,-1.84139 -1.30866,-0.50456 -1.76776,-0.17487 -1.76776,1.26946 0,1.43086 1.27927,2.37513 4.79822,3.54169 5.43936,1.80322 6.69811,1.74225 7.10314,-0.34396 l 0,0 z m -13.93714,-5.00067 c 0.0259,-0.96091 -11.04355,-4.12433 -12.11493,-3.46218 -2.08037,1.28574 -0.82301,2.41177 4.8068,4.30474 5.40706,1.81809 7.24204,1.60653 7.30813,-0.84256 l 0,0 z m -14.28661,-5.38137 c -0.18982,-0.13593 -2.81308,-1.24692 -5.82946,-2.46887 -4.25909,-1.72538 -5.66016,-1.93722 -6.27139,-0.94822 -1.06143,1.71743 -0.0652,2.53878 5.77906,4.76468 4.32314,1.64655 5.07664,1.6978 5.81672,0.39557 0.46761,-0.82281 0.6949,-1.60723 0.50507,-1.74316 z m -14.2307,-4.41164 c 0.45599,-1.36796 -9.49861,-6.63963 -10.90104,-5.77289 -1.91529,1.18372 -0.89823,2.50175 3.82595,4.95818 4.98475,2.59193 6.42731,2.75804 7.07509,0.81471 l 0,0 z M 138.0074,415.8108 c 0,-0.92964 -8.74689,-7.27416 -10.02853,-7.27416 -0.19906,0 -0.62945,0.69718 -0.95644,1.54929 -0.41121,1.0716 0.86812,2.47687 4.14917,4.55766 4.71655,2.99114 6.8358,3.35301 6.8358,1.16721 z m -12.78238,-7.59189 c 1.58716,-1.91242 -7.53611,-9.58433 -9.27109,-7.79623 -0.90798,0.93576 -0.13203,2.12712 3.36565,5.16739 2.50013,2.1732 4.60367,3.95249 4.67454,3.95399 0.0709,0.001 0.62477,-0.59481 1.2309,-1.32515 l 0,0 z m -10.52275,-10.67806 c 0.66161,-1.07051 -3.62755,-11.16966 -4.7583,-11.20376 -1.99287,-0.0601 -1.86755,3.70435 0.25663,7.70846 2.30702,4.34877 3.43359,5.22349 4.50167,3.4953 l 0,0 z m 12.49953,-41.61953 c 2.33178,-1.71482 4.23961,-3.50626 4.23961,-3.98099 0,-2.20608 -2.43332,-1.91246 -5.79144,0.69878 -2.0261,1.57548 -4.11025,3.15463 -4.63144,3.5092 -1.00011,0.68038 -0.0886,2.89085 1.19212,2.89085 0.41334,0 2.65936,-1.40303 4.99115,-3.11784 l 0,0 z m 11.67899,-7.56979 c 5.26396,-2.94208 6.3628,-4.19852 4.92732,-5.634 -1.45379,-1.45379 -11.42407,4.86877 -10.69085,6.7795 0.70446,1.83578 0.27765,1.92061 5.76353,-1.1455 z m 14.49531,-7.29023 c 4.1037,-2.12717 5.06268,-3.06089 4.34139,-4.22705 -0.79075,-1.27847 -1.73979,-1.09755 -6.50672,1.24037 -4.02579,1.97443 -5.41654,3.1656 -4.99094,4.2747 0.75875,1.97728 0.90915,1.9502 7.15627,-1.28802 z m 13.77834,-5.38141 c 3.62362,-1.17943 5.66164,-3.28299 4.40155,-4.54309 -0.91445,-0.91444 -11.83031,2.94235 -11.83031,4.1799 0,1.62695 1.18941,2.63696 2.46225,2.09087 0.59031,-0.25327 2.82524,-1.03072 4.96651,-1.72768 l 0,0 z m 19.04568,-6.79292 c 0.39356,-0.37089 0.38604,-1.20752 -0.0167,-1.85916 -0.55013,-0.89013 -2.17275,-0.78387 -6.52392,0.42722 -5.22721,1.45491 -6.86849,2.89649 -5.19877,4.5662 0.63555,0.63555 10.54723,-2.01074 11.7394,-3.13426 l 0,0 z m 12.50499,-3.21651 c 2.72878,-1.03748 2.2991,-4.38758 -0.46072,-3.59209 -0.90648,0.26128 -3.58006,0.9742 -5.94129,1.58426 -4.18202,1.08051 -5.06666,1.94142 -3.55164,3.45644 0.79802,0.79802 6.05801,0.0325 9.95365,-1.44861 l 0,0 z m 12.28581,-2.97559 c 2.58639,-0.66825 4.29315,-1.69613 4.29315,-2.58551 0,-1.77135 -1.67288,-1.84723 -7.6339,-0.34623 -3.38848,0.85324 -4.48793,1.61231 -4.48793,3.09853 0,1.39673 0.51344,1.81946 1.76777,1.45544 0.97227,-0.28217 3.69968,-1.01217 6.06091,-1.62223 z m 14.39748,-3.14663 c 5.8247,-1.24916 6.37779,-3.49879 0.8213,-3.34053 -5.43078,0.15468 -8.90532,1.30554 -8.90532,2.94967 0,1.7871 1.28409,1.84919 8.08402,0.39086 z m 18.43248,-3.61567 c 0.41669,-0.24706 0.75762,-1.14418 0.75762,-1.9936 0,-1.24824 -0.82328,-1.41637 -4.29315,-0.87675 -6.57484,1.02251 -7.82869,1.53635 -7.82869,3.20833 0,1.27753 0.90942,1.41927 5.30331,0.82659 2.91681,-0.39346 5.64422,-0.91751 6.06091,-1.16457 z m 11.61676,-1.86019 c 3.80706,-0.59207 5.35578,-2.12118 3.7623,-3.71467 -0.72143,-0.72143 -10.8685,1.14892 -11.95754,2.20406 -1.31072,1.26993 0.2971,3.19024 2.21933,2.65064 0.92552,-0.25981 3.61467,-0.77282 5.97591,-1.14003 l 0,0 z m 19.13485,-2.87323 c 0.19697,-0.19698 0.10031,-1.02998 -0.21477,-1.85113 -0.45524,-1.18633 -1.54938,-1.33214 -5.32708,-0.70987 -2.6148,0.43071 -5.32238,0.8102 -6.01686,0.84332 -0.69448,0.0331 -1.26269,0.80683 -1.26269,1.71935 0,1.42983 0.86124,1.56911 6.23163,1.00779 3.4274,-0.35823 6.39279,-0.81249 6.58977,-1.00946 l 0,0 z m 12.17987,-1.284 c 3.33507,-0.89376 2.86949,-3.40392 -0.63134,-3.40392 -5.01691,0 -9.21764,1.20843 -9.21764,2.65165 0,1.47333 5.57065,1.89883 9.84898,0.75227 z m 14.52095,-1.38361 c 2.2877,0 2.90419,-0.45567 2.90419,-2.14658 0,-1.86542 -0.41347,-2.06388 -3.15673,-1.51523 -1.7362,0.34724 -4.46361,0.63135 -6.06092,0.63135 -2.2877,0 -2.90419,0.45567 -2.90419,2.14657 0,1.86542 0.41347,2.06389 3.15673,1.51523 1.7362,-0.34724 4.46361,-0.63134 6.06092,-0.63134 z"
       id="path17429"
       inkscape:connector-curvature="0" />
    <path
       inkscape:export-ydpi="90"
       inkscape:export-xdpi="90"
       inkscape:export-filename="C:\Users\Jim\Documents\Latex_Docs\AtmosphericAttenuation\sphere_rhohat_horizontalpng.png"
       style="fill:none;stroke:#000000;stroke-width:2;stroke-linecap:butt;stroke-linejoin:miter;stroke-opacity:1;marker-end:url(#Arrow1Mend);stroke-miterlimit:4;stroke-dasharray:none"
       d="M 384.28571,379.50504 585.71429,323.79075"
       id="path17847"
       inkscape:connector-curvature="0" />
    <path
       inkscape:export-ydpi="90"
       inkscape:export-xdpi="90"
       inkscape:export-filename="C:\Users\Jim\Documents\Latex_Docs\AtmosphericAttenuation\sphere_rhohat_horizontalpng.png"
       style="fill:none;stroke:#000000;stroke-width:2;stroke-linecap:butt;stroke-linejoin:miter;stroke-opacity:1;stroke-miterlimit:4;stroke-dasharray:2,2;stroke-dashoffset:0"
       d="m 382.85714,378.07647 188.57143,-2.85714"
       id="path18057"
       inkscape:connector-curvature="0" />
    <g
       inkscape:export-ydpi="90"
       inkscape:export-xdpi="90"
       inkscape:export-filename="C:\Users\Jim\Documents\Latex_Docs\AtmosphericAttenuation\sphere_rhohat_horizontalpng.png"
       style="font-style:normal;font-variant:normal;font-weight:normal;font-stretch:normal;letter-spacing:normal;word-spacing:normal;text-anchor:start;fill:none;stroke:#000000;stroke-linecap:butt;stroke-linejoin:miter;stroke-miterlimit:10.43299961;stroke-opacity:1;stroke-dasharray:none;stroke-dashoffset:0"
       id="content"
       transform="matrix(3,0,0,-3,-182.14286,2457.8571)"
       xml:space="preserve"
       stroke-miterlimit="10.433"
       font-style="normal"
       font-variant="normal"
       font-weight="normal"
       font-stretch="normal"
       font-size-adjust="none"
       letter-spacing="normal"
       word-spacing="normal"
       ns0:text="$\\rho$"
       ns0:preamble="">
<path
   style="fill:#000000;stroke-width:0"
   inkscape:connector-curvature="0"
   d="m 223.76,705.41 0,-0.01 0,0 0,-0.01 -0.01,-0.01 0,0 0,0 0,-0.01 0,0 0,-0.01 0,0 0,-0.01 0,0 0,-0.01 -0.01,0 0,-0.01 0,0 0,-0.01 0,-0.01 0,0 0,-0.01 0,0 -0.01,-0.01 0,0 0,0 0,-0.01 0,0 0,-0.01 0,0 0,0 0,0 0,-0.01 0,0 0,0 0,-0.01 0,0 0,0 c 0,-0.15 0.11,-0.27 0.28,-0.27 0.21,0 0.33,0.18 0.35,0.21 0.05,0.09 0.37,1.42 0.63,2.49 0.2,-0.4 0.52,-0.66 0.99,-0.66 l -0.01,0.21 c -0.7,0 -0.86,0.8 -0.86,0.89 0,0.04 0.05,0.24 0.08,0.37 0.28,1.11 0.38,1.47 0.6,1.86 0.43,0.73 0.92,0.95 1.23,0.95 0.37,0 0.69,-0.29 0.69,-0.98 0,-0.54 -0.29,-1.66 -0.56,-2.14 -0.33,-0.63 -0.8,-0.95 -1.18,-0.95 h 0 l 0.01,-0.21 c 1.16,0 2.45,1.4 2.45,2.88 0,1.05 -0.66,1.62 -1.39,1.62 -0.96,0 -2.01,-1 -2.3,-2.21 z"
   id="path18107" />
</g>    <g
       inkscape:export-ydpi="90"
       inkscape:export-xdpi="90"
       inkscape:export-filename="C:\Users\Jim\Documents\Latex_Docs\AtmosphericAttenuation\sphere_rhohat_horizontalpng.png"
       ns0:preamble=""
       ns0:text="$\\alpha$"
       word-spacing="normal"
       letter-spacing="normal"
       font-size-adjust="none"
       font-stretch="normal"
       font-weight="normal"
       font-variant="normal"
       font-style="normal"
       stroke-miterlimit="10.433"
       xml:space="preserve"
       transform="matrix(3,0,0,-3,-214.28571,2493.5714)"
       id="g18205"
       style="font-style:normal;font-variant:normal;font-weight:normal;font-stretch:normal;letter-spacing:normal;word-spacing:normal;text-anchor:start;fill:none;stroke:#000000;stroke-linecap:butt;stroke-linejoin:miter;stroke-miterlimit:10.43299961;stroke-opacity:1;stroke-dasharray:none;stroke-dashoffset:0">
<path
   id="path18207"
   d="m 228.18,709.47 0,0.07 0,0.07 -0.01,0.07 0,0.07 -0.02,0.13 -0.01,0.12 -0.03,0.12 -0.02,0.12 -0.03,0.1 -0.04,0.11 -0.04,0.09 -0.04,0.1 -0.04,0.08 -0.05,0.08 -0.06,0.08 -0.05,0.07 -0.06,0.07 -0.06,0.06 -0.06,0.05 -0.06,0.06 -0.07,0.05 -0.06,0.04 -0.07,0.04 -0.07,0.04 -0.07,0.03 -0.07,0.03 -0.08,0.02 -0.07,0.02 -0.07,0.02 -0.07,0.01 -0.07,0.01 -0.07,0.01 -0.07,0 -0.07,0.01 c -1.37,0 -2.68,-1.43 -2.68,-2.83 0,-0.92 0.6,-1.67 1.61,-1.67 l 0.02,0.21 c -0.59,0 -0.89,0.45 -0.89,1.09 0,0.48 0.26,1.56 0.57,2.06 0.47,0.73 1.01,0.92 1.36,0.92 0.98,0 0.98,-1.3 0.98,-2.08 0,-0.37 0,-0.94 0.02,-1.11 h 0 c -0.87,-0.77 -1.64,-0.88 -2.04,-0.88 l -0.02,-0.21 c 0.63,0 1.34,0.22 2.1,0.83 0.13,-0.53 0.46,-0.83 0.91,-0.83 0.52,0 0.83,0.54 0.83,0.7 0,0.07 -0.06,0.1 -0.12,0.1 -0.07,0 -0.1,-0.03 -0.13,-0.1 -0.18,-0.49 -0.53,-0.49 -0.55,-0.49 -0.31,0 -0.31,0.78 -0.31,1.02 0,0.21 0,0.23 0.1,0.34 0.93,1.18 1.14,2.33 1.14,2.34 0,0.02 -0.01,0.1 -0.12,0.1 -0.1,0 -0.1,-0.03 -0.15,-0.21 -0.18,-0.62 -0.5,-1.38 -0.97,-1.97 z"
   inkscape:connector-curvature="0"
   style="fill:#000000;stroke-width:0" />
</g>    <path
       inkscape:export-ydpi="90"
       inkscape:export-xdpi="90"
       inkscape:export-filename="C:\Users\Jim\Documents\Latex_Docs\AtmosphericAttenuation\sphere_rhohat_horizontalpng.png"
       inkscape:connector-curvature="0"
       id="path12785"
       d="m 698.42931,596.04868 0,80 m 0,0 81.42857,0"
       style="fill:none;stroke:#000000;stroke-width:2;stroke-linecap:butt;stroke-linejoin:miter;stroke-miterlimit:4;stroke-opacity:1;stroke-dasharray:none;marker-start:url(#Arrow1Mstart);marker-end:url(#Arrow1Mend-1)" />
    <g
       inkscape:export-ydpi="90"
       inkscape:export-xdpi="90"
       inkscape:export-filename="C:\Users\Jim\Documents\Latex_Docs\AtmosphericAttenuation\sphere_rhohat_horizontalpng.png"
       ns0:preamble=""
       ns0:text="$\\mathbf{\\hat{x}}$"
       word-spacing="normal"
       letter-spacing="normal"
       font-size-adjust="none"
       font-stretch="normal"
       font-weight="normal"
       font-variant="normal"
       font-style="normal"
       stroke-miterlimit="10.433"
       xml:space="preserve"
       transform="matrix(3,0,0,-3,117.39832,2805.1834)"
       id="g14613"
       style="font-style:normal;font-variant:normal;font-weight:normal;font-stretch:normal;letter-spacing:normal;word-spacing:normal;text-anchor:start;fill:none;stroke:#000000;stroke-linecap:butt;stroke-linejoin:miter;stroke-miterlimit:10.43299961;stroke-opacity:1;stroke-dasharray:none;stroke-dashoffset:0">
<polygon
   id="polygon14615"
   points="226.45,713.21 227.73,712.39 228.01,712.76 226.45,714.02 224.88,712.77 225.16,712.38 "
   style="fill:#000000;stroke-width:0" />
<path
   id="path14617"
   d="m 226.87,709.57 1.17,1.29 c 0.13,0.14 0.19,0.21 1.01,0.21 v 0.47 c -0.34,-0.02 -0.86,-0.03 -0.91,-0.03 -0.25,0 -0.75,0.02 -1.03,0.03 v -0.47 c 0.14,0 0.26,-0.02 0.38,-0.09 -0.04,-0.06 -0.04,-0.08 -0.08,-0.12 l -0.84,-0.93 -0.97,1.14 h 0.4 v 0.47 c -0.26,-0.01 -0.89,-0.03 -1.21,-0.03 -0.31,0 -0.76,0.02 -1.09,0.03 v -0.47 h 0.71 l 1.55,-1.83 -1.31,-1.46 c -0.16,-0.19 -0.52,-0.19 -1,-0.19 v -0.46 c 0.35,0.02 0.87,0.03 0.92,0.03 0.24,0 0.82,-0.02 1.02,-0.03 v 0.46 c -0.18,0 -0.37,0.05 -0.37,0.11 0,0.01 0,0.02 0.07,0.1 l 0.97,1.08 1.09,-1.29 h -0.39 v -0.46 c 0.26,0.01 0.87,0.03 1.2,0.03 0.32,0 0.76,-0.02 1.09,-0.03 v 0.46 h -0.7 z"
   inkscape:connector-curvature="0"
   style="fill:#000000;stroke-width:0" />
</g>    <g
       inkscape:export-ydpi="90"
       inkscape:export-xdpi="90"
       inkscape:export-filename="C:\Users\Jim\Documents\Latex_Docs\AtmosphericAttenuation\sphere_rhohat_horizontalpng.png"
       style="font-style:normal;font-variant:normal;font-weight:normal;font-stretch:normal;letter-spacing:normal;word-spacing:normal;text-anchor:start;fill:none;stroke:#000000;stroke-linecap:butt;stroke-linejoin:miter;stroke-miterlimit:10.43299961;stroke-opacity:1;stroke-dasharray:none;stroke-dashoffset:0"
       ns0:preamble=""
       ns0:text="$\\mathbf{\\hat{z}}$"
       text-anchor="start"
       word-spacing="normal"
       letter-spacing="normal"
       font-size-adjust="none"
       font-stretch="normal"
       font-weight="normal"
       font-variant="normal"
       font-style="normal"
       fill-opacity="1"
       fill-rule="evenodd"
       fill="none"
       stroke-opacity="1"
       stroke-dashoffset="0"
       stroke-dasharray="none"
       stroke-miterlimit="10.433"
       stroke-linejoin="miter"
       stroke-linecap="butt"
       stroke="black"
       xml:space="preserve"
       transform="matrix(3,0,0,-3,19.686595,2705.7678)"
       id="g18601">
<polygon
   id="polygon18603"
   fill="black"
   stroke-width="0"
   points="225.97,714.02 224.41,712.77 224.69,712.38 225.97,713.21 227.25,712.39 227.53,712.76 " />
<path
   id="path18605"
   fill="black"
   stroke-width="0"
   d="M227.9,711.11 L227.91,711.12 L227.91,711.13 L227.92,711.14 L227.93,711.15 L227.93,711.15 L227.94,711.16 L227.94,711.17 L227.95,711.18 L227.95,711.18 L227.96,711.19 L227.96,711.2 L227.97,711.2 L227.97,711.21 L227.97,711.21 L227.98,711.22 L227.98,711.23 L227.98,711.23 L227.98,711.24 L227.99,711.24 L227.99,711.25 L227.99,711.25 L227.99,711.26 L227.99,711.26 L227.99,711.27 L228,711.28 L228,711.28 L228,711.29 L228,711.3 L228,711.3 L228,711.31 L228,711.32 L228,711.33 C228,711.54,227.86,711.54,227.68,711.54 H224.03 L223.91,709.8 H224.38 C224.44,710.82,224.75,711.18,225.77,711.18 H226.62 L223.84,707.56 C223.75,707.45,223.75,707.43,223.75,707.34 C223.75,707.13,223.88,707.13,224.07,707.13 H227.85 L228.03,709.13 H227.56 C227.47,708.13,227.31,707.52,226,707.52 H225.14 Z " />
</g>    <g
       inkscape:export-ydpi="90"
       inkscape:export-xdpi="90"
       inkscape:export-filename="C:\Users\Jim\Documents\Latex_Docs\AtmosphericAttenuation\sphere_rhohat_horizontalpng.png"
       id="g18732"
       transform="matrix(3,0,0,-3,112.33403,2718.7468)"
       xml:space="preserve"
       stroke-miterlimit="10.433"
       font-style="normal"
       font-variant="normal"
       font-weight="normal"
       font-stretch="normal"
       font-size-adjust="none"
       letter-spacing="normal"
       word-spacing="normal"
       ns0:text="$\\mathbf{\\hat{y}}$"
       ns0:preamble=""
       style="font-style:normal;font-variant:normal;font-weight:normal;font-stretch:normal;letter-spacing:normal;word-spacing:normal;text-anchor:start;fill:none;stroke:#000000;stroke-linecap:butt;stroke-linejoin:miter;stroke-miterlimit:10.43299961;stroke-opacity:1;stroke-dasharray:none;stroke-dashoffset:0">
<polygon
   style="fill:#000000;stroke-width:0"
   points="225.24,712.38 226.53,713.21 227.81,712.39 228.09,712.76 226.53,714.02 224.96,712.77 "
   id="polygon18734" />
<path
   style="fill:#000000;stroke-width:0"
   inkscape:connector-curvature="0"
   d="m 228.47,710.86 0.01,0.03 0.01,0.02 0.01,0.01 0.01,0.01 0,0.01 0.01,0.01 0.01,0.01 0.01,0.01 0.01,0.01 0.01,0.01 0.01,0.01 0.02,0 0.01,0.01 0.02,0.01 0.02,0 0.02,0.01 0.02,0 0.03,0.01 0.02,0 0.02,0.01 0.01,0 0.02,0 0.01,0 0.02,0 0.02,0.01 0.02,0 0.01,0 0.02,0 0.02,0 0.02,0 0.03,0 0.02,0 0.02,0.01 0.02,0 0.03,0 0.02,0 0.03,0 0.03,0 0.02,0 0.03,0 0.03,0 v 0.47 c -0.24,-0.02 -0.54,-0.03 -0.78,-0.03 -0.25,0 -0.7,0.02 -0.91,0.03 v -0.47 c 0.02,0 0.47,0 0.47,-0.12 0,-0.01 -0.04,-0.11 -0.05,-0.12 l -1.14,-2.44 -1.27,2.68 h 0.54 v 0.47 c -0.33,-0.02 -1.22,-0.03 -1.24,-0.03 -0.27,0 -0.72,0.02 -1.13,0.03 v -0.47 h 0.64 l 1.86,-3.94 -0.23,-0.48 c -0.22,-0.48 -0.54,-1.15 -1.25,-1.15 -0.13,0 -0.15,0.01 -0.23,0.04 0.09,0.04 0.31,0.17 0.31,0.52 0,0.33 -0.23,0.57 -0.57,0.57 -0.28,0 -0.57,-0.19 -0.57,-0.58 0,-0.5 0.47,-0.91 1.06,-0.91 0.77,0 1.35,0.61 1.62,1.18 z"
   id="path18736" />
</g>    <path
       inkscape:export-ydpi="90"
       inkscape:export-xdpi="90"
       inkscape:connector-curvature="0"
       id="path18801"
       d="m 700.53083,674.12208 77.44141,-66.43065"
       style="fill:none;stroke:#000000;stroke-width:2;stroke-linecap:butt;stroke-linejoin:miter;stroke-miterlimit:4;stroke-opacity:1;stroke-dasharray:none;marker-end:url(#Arrow1Mend-1)"
       inkscape:export-filename="C:\Users\Jim\Documents\Latex_Docs\AtmosphericAttenuation\sphere_rhohat_horizontalpng.png" />
    <g
       ns0:preamble=""
       ns0:text="sun\'s rays"
       word-spacing="normal"
       letter-spacing="normal"
       font-size-adjust="none"
       font-stretch="normal"
       font-weight="normal"
       font-variant="normal"
       font-style="normal"
       stroke-miterlimit="10.433"
       xml:space="preserve"
       transform="matrix(3,0,0,-3,94.285715,2447.1429)"
       id="g19079"
       style="font-style:normal;font-variant:normal;font-weight:normal;font-stretch:normal;letter-spacing:normal;word-spacing:normal;text-anchor:start;fill:none;stroke:#000000;stroke-linecap:butt;stroke-linejoin:miter;stroke-miterlimit:10.43299961;stroke-opacity:1;stroke-dasharray:none;stroke-dashoffset:0"
       inkscape:export-filename="C:\Users\Jim\Documents\Latex_Docs\AtmosphericAttenuation\sphere_rhohat_horizontalpng.png"
       inkscape:export-xdpi="90"
       inkscape:export-ydpi="90">
<path
   id="path19081"
   d="m 225.5,709.05 0.02,0 0.03,-0.01 0.03,0 0.03,-0.01 0.03,-0.01 0.04,-0.01 0.04,-0.01 0.04,-0.01 0.04,-0.01 0.04,-0.01 0.04,-0.02 0.04,-0.02 0.05,-0.01 0.04,-0.03 0.05,-0.02 0.04,-0.02 0.04,-0.03 0.05,-0.03 0.04,-0.03 0.04,-0.03 0.03,-0.03 0.04,-0.04 0.03,-0.04 0.04,-0.04 0.02,-0.05 0.02,-0.02 0.01,-0.03 0.01,-0.02 0.01,-0.03 0.01,-0.02 0.01,-0.03 0.01,-0.03 0.01,-0.02 0,-0.03 0.01,-0.03 0,-0.03 0,-0.04 0.01,-0.03 0,-0.03 c 0,-0.51 -0.35,-0.91 -1.13,-0.91 -0.83,0 -1.19,0.57 -1.38,1.42 -0.03,0.12 -0.04,0.16 -0.14,0.16 -0.13,0 -0.13,-0.07 -0.13,-0.24 v -1.32 c 0,-0.16 0,-0.23 0.11,-0.23 0.05,0 0.06,0.01 0.25,0.19 0.02,0.02 0.02,0.04 0.2,0.23 0.44,-0.41 0.88,-0.42 1.09,-0.42 1.15,0 1.6,0.66 1.6,1.38 0,0.52 -0.3,0.82 -0.41,0.94 -0.33,0.32 -0.72,0.4 -1.14,0.48 -0.56,0.11 -1.22,0.23 -1.22,0.81 0,0.35 0.26,0.76 1.11,0.76 1.1,0 1.15,-0.9 1.17,-1.21 0.01,-0.09 0.1,-0.09 0.12,-0.09 0.12,0 0.12,0.06 0.12,0.24 v 1.01 c 0,0.17 0,0.24 -0.1,0.24 -0.05,0 -0.07,0 -0.2,-0.12 -0.03,-0.04 -0.13,-0.13 -0.17,-0.16 -0.38,0.28 -0.79,0.28 -0.94,0.28 -1.21,0 -1.59,-0.67 -1.59,-1.23 0,-0.34 0.16,-0.62 0.43,-0.84 0.32,-0.26 0.6,-0.32 1.31,-0.46 z"
   inkscape:connector-curvature="0"
   style="fill:#000000;stroke-width:0" />
<path
   id="path19083"
   d="m 231.25,707.91 v -0.89 l 1.43,0.11 v 0.3 c -0.69,0 -0.77,0.07 -0.77,0.56 v 3.53 l -1.46,-0.11 v -0.31 c 0.69,0 0.77,-0.07 0.77,-0.56 v -1.77 c 0,-0.86 -0.48,-1.54 -1.2,-1.54 -0.84,0 -0.88,0.47 -0.88,0.99 v 3.3 l -1.46,-0.11 v -0.31 c 0.78,0 0.78,-0.03 0.78,-0.92 v -1.49 c 0,-0.77 0,-1.67 1.51,-1.67 0.55,0 0.99,0.27 1.28,0.89 z"
   inkscape:connector-curvature="0"
   style="fill:#000000;stroke-width:0" />
<path
   id="path19085"
   d="m 233.99,710.54 v -2.66 c 0,-0.45 -0.11,-0.45 -0.78,-0.45 v -0.3 c 0.35,0.01 0.86,0.03 1.13,0.03 0.26,0 0.78,-0.02 1.11,-0.03 v 0.3 c -0.66,0 -0.77,0 -0.77,0.45 v 1.83 c 0,1.03 0.7,1.59 1.34,1.59 0.63,0 0.74,-0.54 0.74,-1.1 v -2.32 c 0,-0.45 -0.11,-0.45 -0.78,-0.45 v -0.3 c 0.35,0.01 0.86,0.03 1.12,0.03 0.26,0 0.78,-0.02 1.12,-0.03 v 0.3 c -0.52,0 -0.77,0 -0.78,0.3 v 1.9 c 0,0.85 0,1.16 -0.31,1.52 -0.13,0.17 -0.46,0.37 -1.04,0.37 -0.73,0 -1.19,-0.43 -1.47,-1.05 v 1.05 l -1.41,-0.11 v -0.31 c 0.7,0 0.78,-0.07 0.78,-0.56 z"
   inkscape:connector-curvature="0"
   style="fill:#000000;stroke-width:0" />
<path
   id="path19087"
   d="m 240.48,712.98 0,0.05 0,0.06 -0.01,0.05 0,0.05 -0.01,0.05 0,0.05 -0.01,0.05 -0.01,0.05 -0.01,0.05 -0.02,0.04 -0.01,0.05 -0.02,0.04 -0.01,0.04 -0.02,0.04 -0.02,0.04 -0.02,0.03 -0.02,0.04 -0.03,0.03 -0.02,0.03 -0.03,0.03 -0.02,0.02 -0.03,0.03 -0.03,0.02 -0.03,0.02 -0.03,0.02 -0.03,0.01 -0.04,0.02 -0.03,0.01 -0.04,0.01 -0.04,0 -0.04,0.01 -0.03,0 c -0.35,0 -0.53,-0.27 -0.53,-0.53 0,-0.26 0.17,-0.52 0.53,-0.52 0.19,0 0.33,0.1 0.39,0.16 0.01,0.02 0.02,0.03 0.03,0.03 0.02,0 0.02,-0.14 0.02,-0.18 0,-0.32 -0.07,-1.04 -0.69,-1.65 -0.12,-0.12 -0.12,-0.14 -0.12,-0.17 0,-0.07 0.05,-0.11 0.1,-0.11 0.1,0 0.93,0.75 0.93,1.93 z"
   inkscape:connector-curvature="0"
   style="fill:#000000;stroke-width:0" />
<path
   id="path19089"
   d="m 243.27,709.05 0.02,0 0.03,-0.01 0.03,0 0.03,-0.01 0.03,-0.01 0.04,-0.01 0.03,-0.01 0.04,-0.01 0.04,-0.01 0.05,-0.01 0.04,-0.02 0.04,-0.02 0.05,-0.01 0.04,-0.03 0.04,-0.02 0.05,-0.02 0.04,-0.03 0.04,-0.03 0.04,-0.03 0.04,-0.03 0.04,-0.03 0.04,-0.04 0.03,-0.04 0.03,-0.04 0.03,-0.05 0.01,-0.02 0.02,-0.03 0.01,-0.02 0.01,-0.03 0.01,-0.02 0.01,-0.03 0.01,-0.03 0,-0.02 0.01,-0.03 0,-0.03 0.01,-0.03 0,-0.04 0,-0.03 0,-0.03 c 0,-0.51 -0.34,-0.91 -1.12,-0.91 -0.84,0 -1.19,0.57 -1.38,1.42 -0.03,0.12 -0.04,0.16 -0.14,0.16 -0.13,0 -0.13,-0.07 -0.13,-0.24 v -1.32 c 0,-0.16 0,-0.23 0.11,-0.23 0.05,0 0.06,0.01 0.25,0.19 0.02,0.02 0.02,0.04 0.2,0.23 0.43,-0.41 0.88,-0.42 1.09,-0.42 1.14,0 1.6,0.66 1.6,1.38 0,0.52 -0.3,0.82 -0.42,0.94 -0.32,0.32 -0.71,0.4 -1.13,0.48 -0.56,0.11 -1.22,0.23 -1.22,0.81 0,0.35 0.25,0.76 1.11,0.76 1.09,0 1.14,-0.9 1.16,-1.21 0.01,-0.09 0.1,-0.09 0.12,-0.09 0.13,0 0.13,0.06 0.13,0.24 v 1.01 c 0,0.17 0,0.24 -0.11,0.24 -0.05,0 -0.07,0 -0.2,-0.12 -0.03,-0.04 -0.13,-0.13 -0.17,-0.16 -0.37,0.28 -0.78,0.28 -0.93,0.28 -1.21,0 -1.59,-0.67 -1.59,-1.23 0,-0.34 0.16,-0.62 0.43,-0.84 0.31,-0.26 0.59,-0.32 1.31,-0.46 z"
   inkscape:connector-curvature="0"
   style="fill:#000000;stroke-width:0" />
<path
   id="path19091"
   d="m 250.11,710.42 v 1.1 l -1.38,-0.11 v -0.31 c 0.69,0 0.77,-0.07 0.77,-0.56 v -2.66 c 0,-0.45 -0.11,-0.45 -0.77,-0.45 v -0.3 c 0.38,0.01 0.85,0.03 1.13,0.03 0.4,0 0.86,0 1.26,-0.03 v 0.3 h -0.21 c -0.73,0 -0.75,0.11 -0.75,0.47 v 1.53 c 0,0.98 0.41,1.87 1.17,1.87 0.07,0 0.09,0 0.11,-0.01 -0.03,-0.01 -0.23,-0.13 -0.23,-0.39 0,-0.28 0.21,-0.43 0.43,-0.43 0.18,0 0.43,0.12 0.43,0.44 0,0.32 -0.31,0.61 -0.74,0.61 -0.73,0 -1.08,-0.67 -1.22,-1.1 z"
   inkscape:connector-curvature="0"
   style="fill:#000000;stroke-width:0" />
<path
   id="path19093"
   d="m 255.66,707.88 0.01,-0.04 0,-0.03 0.01,-0.04 0.01,-0.04 0.01,-0.04 0.01,-0.03 0.01,-0.04 0.01,-0.03 0.02,-0.04 0.01,-0.03 0.02,-0.04 0.02,-0.03 0.02,-0.03 0.02,-0.04 0.03,-0.03 0.02,-0.03 0.02,-0.02 0.03,-0.03 0.03,-0.03 0.03,-0.02 0.03,-0.02 0.03,-0.03 0.03,-0.02 0.03,-0.01 0.04,-0.02 0.04,-0.01 0.03,-0.02 0.04,-0.01 0.04,0 0.04,-0.01 0.04,0 0.05,0 c 0.21,0 0.81,0.13 0.81,0.94 v 0.56 h -0.24 v -0.56 c 0,-0.58 -0.25,-0.64 -0.36,-0.64 -0.33,0 -0.37,0.45 -0.37,0.5 v 1.99 c 0,0.41 0,0.8 -0.36,1.17 -0.39,0.39 -0.88,0.55 -1.36,0.55 -0.82,0 -1.51,-0.47 -1.51,-1.13 0,-0.29 0.2,-0.46 0.46,-0.46 0.28,0 0.46,0.19 0.46,0.45 0,0.12 -0.05,0.45 -0.51,0.46 0.27,0.35 0.76,0.46 1.08,0.46 0.48,0 1.05,-0.39 1.05,-1.27 v -0.37 -0.21 -0.99 c 0,-0.95 -0.71,-1.29 -1.16,-1.29 -0.49,0 -0.9,0.35 -0.9,0.85 0,0.55 0.42,1.37 2.06,1.43 h 0 v 0.21 c -0.51,-0.03 -1.2,-0.06 -1.83,-0.36 -0.75,-0.34 -0.99,-0.85 -0.99,-1.29 0,-0.81 0.96,-1.05 1.59,-1.05 0.65,0 1.11,0.39 1.3,0.86 z"
   inkscape:connector-curvature="0"
   style="fill:#000000;stroke-width:0" />
<path
   id="path19095"
   d="m 261.19,710.46 0.01,0.03 0.01,0.03 0.02,0.03 0.01,0.02 0.01,0.03 0.02,0.02 0.01,0.03 0.02,0.02 0.03,0.04 0.03,0.04 0.03,0.04 0.03,0.04 0.03,0.03 0.04,0.03 0.03,0.02 0.03,0.03 0.04,0.02 0.03,0.02 0.04,0.02 0.03,0.02 0.03,0.01 0.04,0.01 0.03,0.01 0.03,0.01 0.03,0.01 0.03,0.01 0.03,0 0.03,0.01 0.03,0 0.02,0 0.03,0.01 0.02,0 0.02,0 0.02,0 0.02,0 0.01,0 v 0.31 c -0.22,-0.02 -0.51,-0.03 -0.74,-0.03 -0.18,0 -0.65,0.02 -0.87,0.03 v -0.31 c 0.31,-0.01 0.47,-0.18 0.47,-0.43 0,-0.1 -0.01,-0.12 -0.06,-0.24 l -1,-2.44 -1.11,2.67 c -0.04,0.1 -0.06,0.14 -0.06,0.18 0,0.26 0.37,0.26 0.56,0.26 v 0.31 c -0.26,-0.01 -0.92,-0.03 -1.09,-0.03 -0.26,0 -0.66,0.01 -0.96,0.03 v -0.31 c 0.48,0 0.67,0 0.81,-0.35 l 1.49,-3.62 c -0.05,-0.13 -0.19,-0.46 -0.25,-0.59 -0.22,-0.55 -0.5,-1.23 -1.13,-1.23 -0.06,0 -0.28,0 -0.47,0.18 0.31,0.04 0.38,0.25 0.38,0.41 0,0.26 -0.18,0.42 -0.41,0.42 -0.2,0 -0.42,-0.13 -0.42,-0.43 0,-0.44 0.42,-0.8 0.92,-0.8 0.62,0 1.03,0.57 1.27,1.13 z"
   inkscape:connector-curvature="0"
   style="fill:#000000;stroke-width:0" />
<path
   id="path19097"
   d="m 264.39,709.05 0.02,0 0.03,-0.01 0.02,0 0.04,-0.01 0.03,-0.01 0.03,-0.01 0.04,-0.01 0.04,-0.01 0.04,-0.01 0.05,-0.01 0.04,-0.02 0.04,-0.02 0.05,-0.01 0.04,-0.03 0.04,-0.02 0.05,-0.02 0.04,-0.03 0.04,-0.03 0.04,-0.03 0.04,-0.03 0.04,-0.03 0.04,-0.04 0.03,-0.04 0.03,-0.04 0.03,-0.05 0.01,-0.02 0.02,-0.03 0.01,-0.02 0.01,-0.03 0.01,-0.02 0.01,-0.03 0.01,-0.03 0,-0.02 0.01,-0.03 0,-0.03 0.01,-0.03 0,-0.04 0,-0.03 0,-0.03 c 0,-0.51 -0.34,-0.91 -1.12,-0.91 -0.84,0 -1.19,0.57 -1.38,1.42 -0.03,0.12 -0.04,0.16 -0.14,0.16 -0.13,0 -0.13,-0.07 -0.13,-0.24 v -1.32 c 0,-0.16 0,-0.23 0.11,-0.23 0.05,0 0.06,0.01 0.25,0.19 0.01,0.02 0.01,0.04 0.19,0.23 0.44,-0.41 0.89,-0.42 1.1,-0.42 1.14,0 1.6,0.66 1.6,1.38 0,0.52 -0.3,0.82 -0.42,0.94 -0.33,0.32 -0.71,0.4 -1.13,0.48 -0.56,0.11 -1.22,0.23 -1.22,0.81 0,0.35 0.25,0.76 1.11,0.76 1.09,0 1.14,-0.9 1.16,-1.21 0.01,-0.09 0.1,-0.09 0.12,-0.09 0.13,0 0.13,0.06 0.13,0.24 v 1.01 c 0,0.17 0,0.24 -0.11,0.24 -0.05,0 -0.07,0 -0.2,-0.12 -0.03,-0.04 -0.13,-0.13 -0.17,-0.16 -0.37,0.28 -0.78,0.28 -0.93,0.28 -1.22,0 -1.59,-0.67 -1.59,-1.23 0,-0.34 0.16,-0.62 0.43,-0.84 0.31,-0.26 0.59,-0.32 1.31,-0.46 z"
   inkscape:connector-curvature="0"
   style="fill:#000000;stroke-width:0" />
</g>  </g>
</svg>
