<?xml version="1.0" encoding="UTF-8" standalone="no"?>
<!-- Created with Inkscape (http://www.inkscape.org/) -->

<svg
   xmlns:ns0="http://www.iki.fi/pav/software/textext/"
   xmlns:dc="http://purl.org/dc/elements/1.1/"
   xmlns:cc="http://creativecommons.org/ns#"
   xmlns:rdf="http://www.w3.org/1999/02/22-rdf-syntax-ns#"
   xmlns:svg="http://www.w3.org/2000/svg"
   xmlns="http://www.w3.org/2000/svg"
   xmlns:sodipodi="http://sodipodi.sourceforge.net/DTD/sodipodi-0.dtd"
   xmlns:inkscape="http://www.inkscape.org/namespaces/inkscape"
   width="744.09448819"
   height="1052.3622047"
   id="svg6426"
   version="1.1"
   inkscape:version="0.48.2 r9819"
   sodipodi:docname="spheroid_2.svg">
  <sodipodi:namedview
     id="base"
     pagecolor="#ffffff"
     bordercolor="#666666"
     borderopacity="1.0"
     inkscape:pageopacity="0.0"
     inkscape:pageshadow="2"
     inkscape:zoom="0.98994949"
     inkscape:cx="783.12948"
     inkscape:cy="744.33098"
     inkscape:document-units="px"
     inkscape:current-layer="layer1"
     showgrid="false"
     inkscape:window-width="1366"
     inkscape:window-height="706"
     inkscape:window-x="-8"
     inkscape:window-y="-8"
     inkscape:window-maximized="1" />
  <defs
     id="defs6428">
    <marker
       inkscape:stockid="Arrow1Mstart"
       orient="auto"
       refY="0.0"
       refX="0.0"
       id="Arrow1Mstart"
       style="overflow:visible">
      <path
         id="path7360"
         d="M 0.0,0.0 L 5.0,-5.0 L -12.5,0.0 L 5.0,5.0 L 0.0,0.0 z "
         style="fill-rule:evenodd;stroke:#000000;stroke-width:1.0pt;marker-start:none"
         transform="scale(0.4) translate(10,0)" />
    </marker>
    <marker
       inkscape:stockid="Arrow1Lstart"
       orient="auto"
       refY="0.0"
       refX="0.0"
       id="Arrow1Lstart"
       style="overflow:visible">
      <path
         id="path7354"
         d="M 0.0,0.0 L 5.0,-5.0 L -12.5,0.0 L 5.0,5.0 L 0.0,0.0 z "
         style="fill-rule:evenodd;stroke:#000000;stroke-width:1.0pt;marker-start:none"
         transform="scale(0.8) translate(12.5,0)" />
    </marker>
    <marker
       inkscape:stockid="Arrow1Send"
       orient="auto"
       refY="0.0"
       refX="0.0"
       id="Arrow1Send"
       style="overflow:visible;">
      <path
         id="path7369"
         d="M 0.0,0.0 L 5.0,-5.0 L -12.5,0.0 L 5.0,5.0 L 0.0,0.0 z "
         style="fill-rule:evenodd;stroke:#000000;stroke-width:1.0pt;marker-start:none;"
         transform="scale(0.2) rotate(180) translate(6,0)" />
    </marker>
    <marker
       inkscape:stockid="Arrow1Mend"
       orient="auto"
       refY="0"
       refX="0"
       id="Arrow1Mend"
       style="overflow:visible">
      <path
         inkscape:connector-curvature="0"
         id="path3783"
         d="M 0,0 5,-5 -12.5,0 5,5 0,0 z"
         style="fill-rule:evenodd;stroke:#000000;stroke-width:1pt;marker-start:none"
         transform="matrix(-0.4,0,0,-0.4,-4,0)" />
    </marker>
    <marker
       inkscape:stockid="Arrow1Mend"
       orient="auto"
       refY="0"
       refX="0"
       id="marker6446"
       style="overflow:visible">
      <path
         inkscape:connector-curvature="0"
         id="path6448"
         d="M 0,0 5,-5 -12.5,0 5,5 0,0 z"
         style="fill-rule:evenodd;stroke:#000000;stroke-width:1pt;marker-start:none"
         transform="matrix(-0.4,0,0,-0.4,-4,0)" />
    </marker>
    <marker
       inkscape:stockid="Arrow1MendV"
       orient="auto"
       refY="0"
       refX="0"
       id="Arrow1MendV"
       style="overflow:visible">
      <path
         inkscape:connector-curvature="0"
         id="path6506"
         d="M 0,0 5,-5 -12.5,0 5,5 0,0 z"
         style="fill:#0000ff;fill-rule:evenodd;stroke:#0000ff;stroke-width:1pt;marker-start:none"
         transform="matrix(-0.4,0,0,-0.4,-4,0)" />
    </marker>
    <marker
       inkscape:stockid="Arrow1Mendt"
       orient="auto"
       refY="0"
       refX="0"
       id="Arrow1Mendt"
       style="overflow:visible">
      <path
         inkscape:connector-curvature="0"
         id="path6460"
         d="M 0,0 5,-5 -12.5,0 5,5 0,0 z"
         style="fill:#008000;fill-rule:evenodd;stroke:#008000;stroke-width:1pt;marker-start:none"
         transform="matrix(-0.4,0,0,-0.4,-4,0)" />
    </marker>
    <marker
       inkscape:stockid="Arrow1MendVp"
       orient="auto"
       refY="0"
       refX="0"
       id="Arrow1MendVp"
       style="overflow:visible">
      <path
         inkscape:connector-curvature="0"
         id="path8749"
         d="M 0,0 5,-5 -12.5,0 5,5 0,0 z"
         style="stroke-width:1pt;marker-start:none;stroke:#800080;fill-rule:evenodd;fill:#800080"
         transform="matrix(-0.4,0,0,-0.4,-4,0)" />
    </marker>
    <marker
       inkscape:stockid="Arrow1Mstartt"
       orient="auto"
       refY="0.0"
       refX="0.0"
       id="Arrow1Mstartt"
       style="overflow:visible">
      <path
         id="path10228"
         d="M 0.0,0.0 L 5.0,-5.0 L -12.5,0.0 L 5.0,5.0 L 0.0,0.0 z "
         style="marker-start:none;stroke:#ff6600;stroke-width:1.0pt;fill:#ff6600;fill-rule:evenodd"
         transform="scale(0.4) translate(10,0)" />
    </marker>
    <marker
       inkscape:stockid="marker6446w"
       orient="auto"
       refY="0"
       refX="0"
       id="marker6446w"
       style="overflow:visible">
      <path
         inkscape:connector-curvature="0"
         id="path10231"
         d="M 0,0 5,-5 -12.5,0 5,5 0,0 z"
         style="marker-start:none;stroke:#ff6600;stroke-width:1pt;fill:#ff6600;fill-rule:evenodd"
         transform="matrix(-0.4,0,0,-0.4,-4,0)" />
    </marker>
    <marker
       inkscape:stockid="Arrow1Mstart9"
       orient="auto"
       refY="0.0"
       refX="0.0"
       id="Arrow1Mstart9"
       style="overflow:visible">
      <path
         id="path10234"
         d="M 0.0,0.0 L 5.0,-5.0 L -12.5,0.0 L 5.0,5.0 L 0.0,0.0 z "
         style="marker-start:none;stroke:#ff6600;stroke-width:1.0pt;fill:#ff6600;fill-rule:evenodd"
         transform="scale(0.4) translate(10,0)" />
    </marker>
    <marker
       inkscape:stockid="Arrow1Mstartm"
       orient="auto"
       refY="0.0"
       refX="0.0"
       id="Arrow1Mstartm"
       style="overflow:visible">
      <path
         id="path11171"
         d="M 0.0,0.0 L 5.0,-5.0 L -12.5,0.0 L 5.0,5.0 L 0.0,0.0 z "
         style="marker-start:none;stroke:#ff6600;stroke-width:1.0pt;fill:#ff6600;fill-rule:evenodd"
         transform="scale(0.4) translate(10,0)" />
    </marker>
    <filter
       inkscape:collect="always"
       id="filter11334">
      <feGaussianBlur
         inkscape:collect="always"
         stdDeviation="10.948481"
         id="feGaussianBlur11336" />
    </filter>
    <marker
       inkscape:stockid="Arrow1MendVpS"
       orient="auto"
       refY="0"
       refX="0"
       id="Arrow1MendVpS"
       style="overflow:visible">
      <path
         inkscape:connector-curvature="0"
         id="path13483"
         d="M 0,0 5,-5 -12.5,0 5,5 0,0 z"
         style="marker-start:none;stroke:#008000;stroke-width:1pt;fill:#008000;fill-rule:evenodd"
         transform="matrix(-0.4,0,0,-0.4,-4,0)" />
    </marker>
    <marker
       inkscape:stockid="Arrow1MendtW"
       orient="auto"
       refY="0"
       refX="0"
       id="Arrow1MendtW"
       style="overflow:visible">
      <path
         inkscape:connector-curvature="0"
         id="path13902"
         d="M 0,0 5,-5 -12.5,0 5,5 0,0 z"
         style="stroke-width:1pt;marker-start:none;stroke:#800080;fill-rule:evenodd;fill:#800080"
         transform="matrix(-0.4,0,0,-0.4,-4,0)" />
    </marker>
  </defs>
  <metadata
     id="metadata6431">
    <rdf:RDF>
      <cc:Work
         rdf:about="">
        <dc:format>image/svg+xml</dc:format>
        <dc:type
           rdf:resource="http://purl.org/dc/dcmitype/StillImage" />
        <dc:title />
      </cc:Work>
    </rdf:RDF>
  </metadata>
  <g
     inkscape:label="Layer 1"
     inkscape:groupmode="layer"
     id="layer1">
    <path
       inkscape:export-ydpi="90"
       inkscape:export-xdpi="90"
       inkscape:export-filename="C:\Users\Jim\Documents\Latex_Docs\AtmosphericAttenuation\g6078.png"
       sodipodi:type="arc"
       style="opacity:0.21238938;fill:#00ffff;stroke:#000000;stroke-width:2.26387452999999980;stroke-linecap:butt;stroke-linejoin:miter;stroke-miterlimit:4;stroke-dasharray:13.58324709000000000, 13.58324709000000000;stroke-dashoffset:0;filter:url(#filter11334)"
       id="path2985-9"
       sodipodi:cx="131.42857"
       sodipodi:cy="275.21933"
       sodipodi:rx="471.42856"
       sodipodi:ry="251.42857"
       d="m 602.85713,275.21933 a 471.42856,251.42857 0 1 1 -942.85711,0 471.42856,251.42857 0 1 1 942.85711,0 z"
       transform="matrix(1.3045413,0,0,1.3461082,256.2201,170.50035)" />
    <path
       inkscape:export-ydpi="90"
       inkscape:export-xdpi="90"
       inkscape:export-filename="C:\Users\Jim\Documents\Latex_Docs\AtmosphericAttenuation\g6078.png"
       sodipodi:type="arc"
       style="fill:#e9c6af;stroke:#e9c6af;stroke-width:2.73225546000000020;stroke-linecap:butt;stroke-linejoin:miter;stroke-miterlimit:4;stroke-dasharray:none;stroke-dashoffset:0;opacity:0.76106194999999999"
       id="path2985"
       sodipodi:cx="131.42857"
       sodipodi:cy="275.21933"
       sodipodi:rx="471.42856"
       sodipodi:ry="251.42857"
       d="m 602.85713,275.21933 a 471.42856,251.42857 0 1 1 -942.85711,0 471.42856,251.42857 0 1 1 942.85711,0 z"
       transform="matrix(1.097955,0,0,1.0980328,278.87033,237.3135)" />
    <path
       inkscape:export-ydpi="90"
       inkscape:export-xdpi="90"
       inkscape:export-filename="C:\Users\Jim\Documents\Latex_Docs\AtmosphericAttenuation\g6078.png"
       style="fill:none;stroke:#000000;stroke-width:2.99999976;stroke-linecap:butt;stroke-linejoin:miter;stroke-miterlimit:4;stroke-opacity:1;stroke-dasharray:none;marker-end:url(#Arrow1Mend)"
       d="m 423.173,540.81642 0,-270.96688"
       id="path3767"
       inkscape:connector-curvature="0" />
    <path
       inkscape:export-ydpi="90"
       inkscape:export-xdpi="90"
       inkscape:export-filename="C:\Users\Jim\Documents\Latex_Docs\AtmosphericAttenuation\g6078.png"
       style="fill:none;stroke:#000000;stroke-width:2.99999976;stroke-linecap:butt;stroke-linejoin:miter;stroke-miterlimit:4;stroke-opacity:1;stroke-dasharray:none;marker-end:url(#Arrow1Mend)"
       d="m 423.20748,543.39791 514.55895,0"
       id="path4583"
       inkscape:connector-curvature="0" />
    <path
       inkscape:export-ydpi="90"
       inkscape:export-xdpi="90"
       inkscape:export-filename="C:\Users\Jim\Documents\Latex_Docs\AtmosphericAttenuation\g6078.png"
       style="fill:none;stroke:#800080;stroke-width:2.99999976;stroke-linecap:butt;stroke-linejoin:miter;stroke-miterlimit:4;stroke-opacity:1;stroke-dasharray:none;marker-end:url(#Arrow1MendVp)"
       d="M 423.2075,541.79981 944.51839,242.58859"
       id="path6055"
       inkscape:connector-curvature="0" />
    <path
       inkscape:export-ydpi="90"
       inkscape:export-xdpi="90"
       inkscape:export-filename="C:\Users\Jim\Documents\Latex_Docs\AtmosphericAttenuation\g6078.png"
       style="fill:#008000;stroke:#008000;stroke-width:3.00000024;stroke-linecap:butt;stroke-linejoin:miter;stroke-miterlimit:4;stroke-opacity:1;stroke-dasharray:none;marker-end:url(#Arrow1Mendt)"
       d="M 655.70259,543.60692 923.21212,211.62526"
       id="path6057"
       inkscape:connector-curvature="0" />
    <path
       inkscape:export-ydpi="90"
       inkscape:export-xdpi="90"
       inkscape:export-filename="C:\Users\Jim\Documents\Latex_Docs\AtmosphericAttenuation\g6078.png"
       style="fill:none;stroke:#008000;stroke-width:2.99999976;stroke-linecap:butt;stroke-linejoin:miter;stroke-miterlimit:4;stroke-opacity:1;stroke-dasharray:9.00000039, 3.00000013;stroke-dashoffset:0"
       d="M 645.06933,242.3203 921.88782,426.87037"
       id="path6059"
       inkscape:connector-curvature="0" />
    <path
       inkscape:export-ydpi="90"
       inkscape:export-xdpi="90"
       inkscape:export-filename="C:\Users\Jim\Documents\Latex_Docs\AtmosphericAttenuation\g6078.png"
       style="fill:none;stroke:#008000;stroke-width:1.99999988;stroke-linecap:butt;stroke-linejoin:miter;stroke-miterlimit:4;stroke-opacity:1;stroke-dasharray:none"
       d="m 696.94395,542.59885 c 0,0 4.312,-5.25098 -7.06819,-19.76515 -7.60268,-9.69655 -16.90192,-9.00105 -16.90192,-9.00105"
       id="path6065"
       inkscape:connector-curvature="0"
       sodipodi:nodetypes="csc" />
    <path
       inkscape:export-ydpi="90"
       inkscape:export-xdpi="90"
       inkscape:export-filename="C:\Users\Jim\Documents\Latex_Docs\AtmosphericAttenuation\g6078.png"
       style="fill:none;stroke:#0000ff;stroke-width:1.99999988;stroke-linecap:butt;stroke-linejoin:miter;stroke-miterlimit:4;stroke-opacity:1;stroke-dasharray:none"
       d="m 456.59761,541.80526 c 0,0 3.06022,-3.35551 -5.01634,-12.63045 -5.39568,-6.19634 -11.99538,-5.75191 -11.99538,-5.75191"
       id="path6065-1"
       inkscape:connector-curvature="0"
       sodipodi:nodetypes="csc" />
    <g
       style="font-style:normal;font-variant:normal;font-weight:normal;font-stretch:normal;letter-spacing:normal;word-spacing:normal;text-anchor:start;fill:none;stroke:#000000;stroke-width:0.17067239;stroke-linecap:butt;stroke-linejoin:miter;stroke-miterlimit:10.43299961;stroke-opacity:1;stroke-dasharray:none;stroke-dashoffset:0"
       ns0:preamble=""
       ns0:text="$\\varphi_{c}$"
       word-spacing="normal"
       letter-spacing="normal"
       font-size-adjust="none"
       font-stretch="normal"
       font-weight="normal"
       font-variant="normal"
       font-style="normal"
       stroke-miterlimit="10.433"
       xml:space="preserve"
       transform="matrix(5.7277228,0,0,-5.9936515,-854.42365,4708.1636)"
       id="content">


<g
   style="font-style:normal;font-variant:normal;font-weight:normal;font-stretch:normal;letter-spacing:normal;word-spacing:normal;text-anchor:start;fill:none;stroke:#000000;stroke-linecap:butt;stroke-linejoin:miter;stroke-miterlimit:10.43299961;stroke-opacity:1;stroke-dasharray:none;stroke-dashoffset:0"
   id="g3312"
   transform="matrix(1,0,0,-1,-200,750)"
   xml:space="preserve"
   stroke-miterlimit="10.433"
   font-style="normal"
   font-variant="normal"
   font-weight="normal"
   font-stretch="normal"
   font-size-adjust="none"
   letter-spacing="normal"
   word-spacing="normal"
   ns0:text="$\\varphi_c$"
   ns0:preamble="">
<path
   style="fill:#000000;stroke-width:0"
   inkscape:connector-curvature="0"
   d="m 225.12,705.44 0,-0.01 0,-0.01 0,0 0,-0.01 -0.01,-0.01 0,-0.01 0,-0.01 -0.01,-0.01 0,0 0,-0.01 0,-0.01 -0.01,-0.01 0,0 0,-0.01 0,-0.01 0,0 0,-0.01 -0.01,0 0,-0.01 0,0 0,-0.01 0,0 0,-0.01 0,0 0,-0.01 0,-0.01 -0.01,0 0,-0.01 0,-0.01 0,0 c 0,-0.22 0.19,-0.28 0.29,-0.28 0.05,0 0.27,0.03 0.37,0.26 0.03,0.08 0.08,0.41 0.35,1.82 0.09,-0.01 0.16,-0.02 0.33,-0.02 1.65,0 3.18,1.56 3.18,3.13 l -0.28,-0.22 c 0,-1.13 -1.28,-2.34 -2.81,-2.34 h 0 c -0.08,0 -0.1,0 -0.18,0.01 -0.12,0 -0.13,0.01 -0.13,0.04 0,0.02 0.17,0.93 0.2,1.07 0.31,1.28 1.08,2.23 1.97,2.23 0.68,0 0.95,-0.54 0.95,-1.01 l 0.28,0.22 c 0,0.77 -0.39,1.37 -1.13,1.37 -1.45,0 -2.04,-1.93 -2.64,-3.87 -1.08,0.2 -1.63,0.76 -1.63,1.47 0,0.28 0.23,1.37 0.82,2.06 0.08,0.09 0.08,0.11 0.08,0.13 0,0.04 -0.02,0.1 -0.12,0.1 -0.27,0 -1.04,-1.44 -1.04,-2.4 0,-0.93 0.66,-1.66 1.72,-1.91 z"
   id="path3314" />
<path
   style="fill:#000000;stroke-width:0"
   inkscape:connector-curvature="0"
   d="m 233,708.29 -0.02,0 -0.03,-0.01 -0.02,0 -0.02,-0.01 -0.02,-0.01 -0.02,0 -0.01,-0.01 -0.02,-0.01 -0.02,-0.01 -0.01,-0.01 -0.02,-0.01 -0.01,-0.02 -0.02,-0.01 -0.01,-0.01 -0.01,-0.01 -0.01,-0.02 -0.01,-0.01 -0.01,-0.02 -0.01,-0.01 -0.01,-0.02 -0.01,-0.01 0,-0.02 -0.01,-0.01 -0.01,-0.02 0,-0.01 0,-0.02 -0.01,-0.01 0,-0.02 0,-0.01 0,-0.02 -0.01,-0.01 0,-0.01 c 0,-0.19 0.15,-0.26 0.28,-0.26 0.15,0 0.39,0.11 0.39,0.44 0,0.48 -0.54,0.61 -0.92,0.61 -1.04,0 -2.01,-0.96 -2.01,-1.93 0,-0.6 0.42,-1.21 1.29,-1.21 1.18,0 1.73,0.69 1.73,0.79 0,0.04 -0.07,0.12 -0.12,0.12 -0.04,0 -0.06,-0.02 -0.11,-0.07 -0.55,-0.64 -1.36,-0.64 -1.49,-0.64 -0.5,0 -0.72,0.34 -0.72,0.77 0,0.2 0.1,0.96 0.46,1.44 0.26,0.34 0.62,0.53 0.97,0.53 0.1,0 0.43,-0.01 0.61,-0.21 z"
   id="path3316" />
</g>
</g>    <g
       inkscape:export-ydpi="90"
       inkscape:export-xdpi="90"
       inkscape:export-filename="C:\Users\Jim\Documents\Latex_Docs\AtmosphericAttenuation\g6078.png"
       style="font-style:normal;font-variant:normal;font-weight:normal;font-stretch:normal;letter-spacing:normal;word-spacing:normal;text-anchor:start;fill:none;stroke:#000000;stroke-width:0.91075182;stroke-linecap:butt;stroke-linejoin:miter;stroke-miterlimit:10.43299961;stroke-opacity:1;stroke-dasharray:none;stroke-dashoffset:0"
       id="g5704"
       transform="matrix(5.4897751,0,0,-5.4901642,-854.51602,4321.8114)"
       xml:space="preserve"
       stroke-miterlimit="10.433"
       font-style="normal"
       font-variant="normal"
       font-weight="normal"
       font-stretch="normal"
       font-size-adjust="none"
       letter-spacing="normal"
       word-spacing="normal"
       ns0:text="$b$"
       ns0:preamble="">
<path
   style="fill:#000000;stroke-width:0"
   inkscape:connector-curvature="0"
   d="m 225.81,713.91 0,0 0,0 0,0 0,0 0,0.01 0,0 0,0 0,0.01 0,0 0,0.01 0,0 -0.01,0 0,0.01 0,0 0,0.01 0,0 -0.01,0.01 0,0 0,0.01 -0.01,0 0,0.01 0,0 -0.01,0 0,0 0,0.01 -0.01,0 0,0 0,0 0,0 -0.01,0.01 0,0 -0.01,0 0,0 0,0 -0.01,0 0,0 -0.01,0 0,0.01 -0.01,0 0,0 -0.01,0 0,0 -0.01,0 0,0 -0.01,0 c -0.23,0 -0.95,-0.08 -1.21,-0.1 -0.08,-0.01 -0.19,-0.02 -0.19,-0.2 0,-0.12 0.09,-0.12 0.24,-0.12 0.47,0 0.49,-0.07 0.49,-0.17 0,-0.07 -0.09,-0.4 -0.13,-0.61 l -0.82,-3.24 c -0.12,-0.5 -0.16,-0.66 -0.16,-1 0,-0.95 0.53,-1.56 1.26,-1.56 v 0.21 c -0.34,0 -0.66,0.27 -0.66,1.01 0,0.19 0,0.37 0.16,1 l 0.22,0.92 c 0.05,0.21 0.05,0.23 0.14,0.34 0.49,0.65 0.94,0.8 1.2,0.8 0.36,0 0.63,-0.3 0.63,-0.94 0,-0.58 -0.33,-1.72 -0.51,-2.1 -0.33,-0.67 -0.79,-1.03 -1.18,-1.03 v -0.21 c 1.18,0 2.4,1.48 2.4,2.91 0,0.9 -0.53,1.59 -1.32,1.59 -0.46,0 -0.87,-0.29 -1.17,-0.6 z"
   id="path5706" />
</g>    <g
       inkscape:export-ydpi="90"
       inkscape:export-xdpi="90"
       id="g6078"
       transform="matrix(5.4897751,0,0,-5.4901642,-564.67728,4463.9199)"
       xml:space="preserve"
       stroke-miterlimit="10.433"
       font-style="normal"
       font-variant="normal"
       font-weight="normal"
       font-stretch="normal"
       font-size-adjust="none"
       letter-spacing="normal"
       word-spacing="normal"
       ns0:text="$a$"
       ns0:preamble=""
       style="font-style:normal;font-variant:normal;font-weight:normal;font-stretch:normal;letter-spacing:normal;word-spacing:normal;text-anchor:start;fill:none;stroke:#000000;stroke-width:0.91075182;stroke-linecap:butt;stroke-linejoin:miter;stroke-miterlimit:10.43299961;stroke-opacity:1;stroke-dasharray:none;stroke-dashoffset:0">
<path
   style="fill:#000000;stroke-width:0"
   inkscape:connector-curvature="0"
   d="m 227.14,710.88 -0.01,0.03 -0.02,0.04 -0.02,0.03 -0.02,0.03 -0.02,0.03 -0.02,0.03 -0.02,0.03 -0.02,0.03 -0.03,0.03 -0.02,0.03 -0.02,0.03 -0.03,0.02 -0.02,0.03 -0.03,0.02 -0.03,0.02 -0.02,0.03 -0.03,0.02 -0.03,0.02 -0.03,0.01 -0.03,0.02 -0.04,0.02 -0.03,0.01 -0.03,0.02 -0.04,0.01 -0.03,0.01 -0.04,0.01 -0.03,0.01 -0.04,0 -0.04,0.01 -0.04,0 -0.04,0.01 -0.04,0 c -1.17,0 -2.4,-1.47 -2.4,-2.92 0,-0.93 0.55,-1.58 1.32,-1.58 l 0.02,0.21 c -0.49,0 -0.63,0.55 -0.63,0.94 0,0.49 0.31,1.72 0.54,2.17 0.31,0.59 0.76,0.96 1.16,0.96 0.64,0 0.78,-0.82 0.78,-0.88 0,-0.06 -0.02,-0.12 -0.03,-0.17 l -0.49,-1.94 c -0.05,-0.18 -0.05,-0.2 -0.2,-0.37 -0.44,-0.55 -0.85,-0.71 -1.13,-0.71 l -0.02,-0.21 c 0.2,0 0.7,0.03 1.3,0.74 0.08,-0.42 0.42,-0.74 0.9,-0.74 0.35,0 0.58,0.22 0.74,0.54 0.17,0.36 0.3,0.97 0.3,0.99 0,0.1 -0.09,0.1 -0.12,0.1 -0.1,0 -0.11,-0.05 -0.14,-0.18 -0.17,-0.65 -0.35,-1.24 -0.76,-1.24 -0.27,0 -0.3,0.26 -0.3,0.46 0,0.22 0.02,0.3 0.13,0.74 0.11,0.41 0.13,0.51 0.22,0.89 l 0.36,1.39 c 0.07,0.28 0.07,0.3 0.07,0.34 0,0.17 -0.12,0.27 -0.29,0.27 -0.24,0 -0.39,-0.22 -0.42,-0.44 z"
   id="path6080" />
</g>    <path
       style="fill:#ffff00;stroke:#ff6600;stroke-width:2.99999976;stroke-linecap:butt;stroke-linejoin:miter;stroke-miterlimit:4;stroke-opacity:1;stroke-dasharray:none;marker-start:url(#Arrow1Mstartt);marker-mid:url(#marker6446w);marker-end:url(#Arrow1Mstart9)"
       d="M 671.54701,294.12805 836.8505,290.99082"
       id="path7349"
       inkscape:connector-curvature="0" />
    <path
       style="fill:none;stroke:#0000ff;stroke-width:2.99999976;stroke-linecap:butt;stroke-linejoin:miter;stroke-miterlimit:4;stroke-opacity:1;stroke-dasharray:none"
       d="M 424.58238,541.96975 675.54352,292.55944"
       id="path8373"
       inkscape:connector-curvature="0" />
    <path
       transform="matrix(0.88745375,0,0,0.83776316,123.98987,90.778547)"
       inkscape:export-ydpi="90"
       inkscape:export-xdpi="90"
       inkscape:export-filename="C:\Users\Jim\Documents\Latex_Docs\AtmosphericAttenuation\g6078.png"
       sodipodi:type="arc"
       style="fill:#ff6600;stroke:none"
       id="path6053"
       sodipodi:cx="617.10712"
       sodipodi:cy="244.59225"
       sodipodi:rx="11.643531"
       sodipodi:ry="11.643531"
       d="m 628.75065,244.59225 a 11.643531,11.643531 0 1 1 -23.28706,0 11.643531,11.643531 0 1 1 23.28706,0 z" />
    <path
       inkscape:export-ydpi="90"
       inkscape:export-xdpi="90"
       inkscape:export-filename="C:\Users\Jim\Documents\Latex_Docs\AtmosphericAttenuation\g6078.png"
       style="fill:none;stroke:#800080;stroke-width:1.99999988;stroke-linecap:butt;stroke-linejoin:miter;stroke-miterlimit:4;stroke-opacity:1;stroke-dasharray:none"
       d="m 549.41079,543.54332 c 0,0 6.53531,-9.6297 -10.71272,-36.24701 -11.52285,-17.78231 -25.61696,-16.50688 -25.61696,-16.50688"
       id="path6065-1-4"
       inkscape:connector-curvature="0"
       sodipodi:nodetypes="csc" />
    <g
       style="font-style:normal;font-variant:normal;font-weight:normal;font-stretch:normal;letter-spacing:normal;word-spacing:normal;text-anchor:start;fill:#800080;stroke:#000000;stroke-width:0.91075182;stroke-linecap:butt;stroke-linejoin:miter;stroke-miterlimit:10.43299961;stroke-opacity:1;stroke-dasharray:none;stroke-dashoffset:0"
       id="g8452"
       transform="matrix(3.293865,0,0,-3.2940985,-180.15662,2854.312)"
       xml:space="preserve"
       stroke-miterlimit="10.433"
       font-style="normal"
       font-variant="normal"
       font-weight="normal"
       font-stretch="normal"
       font-size-adjust="none"
       letter-spacing="normal"
       word-spacing="normal"
       ns0:text="$\\varphi_c^{\'}$"
       ns0:preamble="">
<path
   style="fill:#800080;stroke-width:0"
   inkscape:connector-curvature="0"
   d="m 225.12,705.44 0,-0.01 0,-0.01 0,0 0,-0.01 -0.01,-0.01 0,-0.01 0,-0.01 -0.01,-0.01 0,0 0,-0.01 0,-0.01 -0.01,-0.01 0,0 0,-0.01 0,-0.01 0,0 0,-0.01 -0.01,0 0,-0.01 0,0 0,-0.01 0,0 0,-0.01 0,0 0,-0.01 0,-0.01 -0.01,0 0,-0.01 0,-0.01 0,0 c 0,-0.22 0.19,-0.28 0.29,-0.28 0.05,0 0.27,0.03 0.37,0.26 0.03,0.08 0.08,0.41 0.35,1.82 0.09,-0.01 0.16,-0.02 0.33,-0.02 1.65,0 3.18,1.56 3.18,3.13 l -0.28,-0.22 c 0,-1.13 -1.28,-2.34 -2.81,-2.34 h 0 c -0.08,0 -0.1,0 -0.18,0.01 -0.12,0 -0.13,0.01 -0.13,0.04 0,0.02 0.17,0.93 0.2,1.07 0.31,1.28 1.08,2.23 1.97,2.23 0.68,0 0.95,-0.54 0.95,-1.01 l 0.28,0.22 c 0,0.77 -0.39,1.37 -1.13,1.37 -1.45,0 -2.04,-1.93 -2.64,-3.87 -1.08,0.2 -1.63,0.76 -1.63,1.47 0,0.28 0.23,1.37 0.82,2.06 0.08,0.09 0.08,0.11 0.08,0.13 0,0.04 -0.02,0.1 -0.12,0.1 -0.27,0 -1.04,-1.44 -1.04,-2.4 0,-0.93 0.66,-1.66 1.72,-1.91 z"
   id="path8454" />
<path
   style="fill:#800080;stroke-width:0"
   inkscape:connector-curvature="0"
   d="m 231.74,716.06 0,0 0,0 0,0 0,0 0,0 0,0 0,0.01 0.01,0 0,0 0,0.01 0,0 0,0 0.01,0.01 0,0 0,0.01 0,0.01 0,0 0.01,0.01 0,0 0,0.01 0,0.01 0.01,0 0,0.01 0,0.01 0,0.01 0,0 0,0.01 0.01,0.01 0,0 0,0.01 0,0.01 0,0.01 0,0 0,0.01 c 0,0.18 -0.16,0.29 -0.31,0.29 -0.2,0 -0.26,-0.15 -0.28,-0.23 l -0.77,-2.15 c -0.02,-0.05 -0.02,-0.07 -0.02,-0.07 0,-0.09 0.21,-0.13 0.22,-0.13 0.04,0 0.05,0.02 0.08,0.08 z"
   id="path8456" />
<path
   style="fill:#800080;stroke-width:0"
   inkscape:connector-curvature="0"
   d="m 233,707.33 -0.02,-0.01 -0.03,0 -0.02,-0.01 -0.02,-0.01 -0.02,0 -0.02,-0.01 -0.01,-0.01 -0.02,-0.01 -0.02,-0.01 -0.01,-0.01 -0.02,-0.01 -0.01,-0.02 -0.02,-0.01 -0.01,-0.01 -0.01,-0.01 -0.01,-0.02 -0.01,-0.01 -0.01,-0.02 -0.01,-0.01 -0.01,-0.01 -0.01,-0.02 0,-0.01 -0.01,-0.02 -0.01,-0.01 0,-0.02 0,-0.01 -0.01,-0.02 0,-0.02 0,-0.01 0,-0.01 -0.01,-0.02 0,-0.01 c 0,-0.19 0.15,-0.26 0.28,-0.26 0.15,0 0.39,0.11 0.39,0.44 0,0.48 -0.54,0.61 -0.92,0.61 -1.04,0 -2.01,-0.96 -2.01,-1.93 0,-0.6 0.42,-1.21 1.29,-1.21 1.18,0 1.73,0.69 1.73,0.79 0,0.04 -0.07,0.12 -0.12,0.12 -0.04,0 -0.06,-0.02 -0.11,-0.07 -0.55,-0.64 -1.36,-0.64 -1.49,-0.64 -0.5,0 -0.72,0.34 -0.72,0.77 0,0.2 0.1,0.96 0.46,1.44 0.26,0.34 0.62,0.53 0.97,0.53 0.1,0 0.43,-0.01 0.61,-0.2 z"
   id="path8458" />
</g>    <g
       ns0:preamble=""
       ns0:text="$\\varphi_c$"
       word-spacing="normal"
       letter-spacing="normal"
       font-size-adjust="none"
       font-stretch="normal"
       font-weight="normal"
       font-variant="normal"
       font-style="normal"
       stroke-miterlimit="10.433"
       xml:space="preserve"
       transform="matrix(3.293865,0,0,-3.2940985,-276.64851,2857.6396)"
       id="g8548"
       style="font-style:normal;font-variant:normal;font-weight:normal;font-stretch:normal;letter-spacing:normal;word-spacing:normal;text-anchor:start;fill:#0000ff;stroke:#000000;stroke-width:0.91075182;stroke-linecap:butt;stroke-linejoin:miter;stroke-miterlimit:10.43299961;stroke-opacity:1;stroke-dasharray:none;stroke-dashoffset:0">
<path
   id="path8550"
   d="m 225.12,705.44 0,-0.01 0,-0.01 0,0 0,-0.01 -0.01,-0.01 0,-0.01 0,-0.01 -0.01,-0.01 0,0 0,-0.01 0,-0.01 -0.01,-0.01 0,0 0,-0.01 0,-0.01 0,0 0,-0.01 -0.01,0 0,-0.01 0,0 0,-0.01 0,0 0,-0.01 0,0 0,-0.01 0,-0.01 -0.01,0 0,-0.01 0,-0.01 0,0 c 0,-0.22 0.19,-0.28 0.29,-0.28 0.05,0 0.27,0.03 0.37,0.26 0.03,0.08 0.08,0.41 0.35,1.82 0.09,-0.01 0.16,-0.02 0.33,-0.02 1.65,0 3.18,1.56 3.18,3.13 l -0.28,-0.22 c 0,-1.13 -1.28,-2.34 -2.81,-2.34 h 0 c -0.08,0 -0.1,0 -0.18,0.01 -0.12,0 -0.13,0.01 -0.13,0.04 0,0.02 0.17,0.93 0.2,1.07 0.31,1.28 1.08,2.23 1.97,2.23 0.68,0 0.95,-0.54 0.95,-1.01 l 0.28,0.22 c 0,0.77 -0.39,1.37 -1.13,1.37 -1.45,0 -2.04,-1.93 -2.64,-3.87 -1.08,0.2 -1.63,0.76 -1.63,1.47 0,0.28 0.23,1.37 0.82,2.06 0.08,0.09 0.08,0.11 0.08,0.13 0,0.04 -0.02,0.1 -0.12,0.1 -0.27,0 -1.04,-1.44 -1.04,-2.4 0,-0.93 0.66,-1.66 1.72,-1.91 z"
   inkscape:connector-curvature="0"
   style="fill:#0000ff;stroke-width:0" />
<path
   id="path8552"
   d="m 233,708.29 -0.02,0 -0.03,-0.01 -0.02,0 -0.02,-0.01 -0.02,-0.01 -0.02,0 -0.01,-0.01 -0.02,-0.01 -0.02,-0.01 -0.01,-0.01 -0.02,-0.01 -0.01,-0.02 -0.02,-0.01 -0.01,-0.01 -0.01,-0.01 -0.01,-0.02 -0.01,-0.01 -0.01,-0.02 -0.01,-0.01 -0.01,-0.02 -0.01,-0.01 0,-0.02 -0.01,-0.01 -0.01,-0.02 0,-0.01 0,-0.02 -0.01,-0.01 0,-0.02 0,-0.01 0,-0.02 -0.01,-0.01 0,-0.01 c 0,-0.19 0.15,-0.26 0.28,-0.26 0.15,0 0.39,0.11 0.39,0.44 0,0.48 -0.54,0.61 -0.92,0.61 -1.04,0 -2.01,-0.96 -2.01,-1.93 0,-0.6 0.42,-1.21 1.29,-1.21 1.18,0 1.73,0.69 1.73,0.79 0,0.04 -0.07,0.12 -0.12,0.12 -0.04,0 -0.06,-0.02 -0.11,-0.07 -0.55,-0.64 -1.36,-0.64 -1.49,-0.64 -0.5,0 -0.72,0.34 -0.72,0.77 0,0.2 0.1,0.96 0.46,1.44 0.26,0.34 0.62,0.53 0.97,0.53 0.1,0 0.43,-0.01 0.61,-0.21 z"
   inkscape:connector-curvature="0"
   style="fill:#0000ff;stroke-width:0" />
</g>    <g
       id="g8675"
       transform="matrix(3.293865,0,0,-3.2940985,-37.227434,2853.9124)"
       xml:space="preserve"
       stroke-miterlimit="10.433"
       font-style="normal"
       font-variant="normal"
       font-weight="normal"
       font-stretch="normal"
       font-size-adjust="none"
       letter-spacing="normal"
       word-spacing="normal"
       ns0:text="$\\varphi_d^{\'}$"
       ns0:preamble=""
       style="font-style:normal;font-variant:normal;font-weight:normal;font-stretch:normal;letter-spacing:normal;word-spacing:normal;text-anchor:start;fill:#008000;fill-opacity:1;fill-rule:evenodd;stroke:#000000;stroke-width:0.91075182;stroke-linecap:butt;stroke-linejoin:miter;stroke-miterlimit:10.43299961;stroke-opacity:1;stroke-dasharray:none;stroke-dashoffset:0">
<path
   style="fill:#008000;stroke-width:0"
   d="m 225.12,705.44 0,-0.01 0,-0.01 0,0 0,-0.01 -0.01,-0.01 0,-0.01 0,-0.01 -0.01,-0.01 0,0 0,-0.01 0,-0.01 -0.01,-0.01 0,0 0,-0.01 0,-0.01 0,0 0,-0.01 -0.01,0 0,-0.01 0,0 0,-0.01 0,0 0,-0.01 0,0 0,-0.01 0,-0.01 -0.01,0 0,-0.01 0,-0.01 0,0 c 0,-0.22 0.19,-0.28 0.29,-0.28 0.05,0 0.27,0.03 0.37,0.26 0.03,0.08 0.08,0.41 0.35,1.82 0.09,-0.01 0.16,-0.02 0.33,-0.02 1.65,0 3.18,1.56 3.18,3.13 l -0.28,-0.22 c 0,-1.13 -1.28,-2.34 -2.81,-2.34 h 0 c -0.08,0 -0.1,0 -0.18,0.01 -0.12,0 -0.13,0.01 -0.13,0.04 0,0.02 0.17,0.93 0.2,1.07 0.31,1.28 1.08,2.23 1.97,2.23 0.68,0 0.95,-0.54 0.95,-1.01 l 0.28,0.22 c 0,0.77 -0.39,1.37 -1.13,1.37 -1.45,0 -2.04,-1.93 -2.64,-3.87 -1.08,0.2 -1.63,0.76 -1.63,1.47 0,0.28 0.23,1.37 0.82,2.06 0.08,0.09 0.08,0.11 0.08,0.13 0,0.04 -0.02,0.1 -0.12,0.1 -0.27,0 -1.04,-1.44 -1.04,-2.4 0,-0.93 0.66,-1.66 1.72,-1.91 z"
   id="path8677"
   inkscape:connector-curvature="0" />
<path
   style="fill:#008000;stroke-width:0"
   d="m 231.74,716.06 0,0 0,0 0,0 0,0 0,0 0,0 0,0.01 0.01,0 0,0 0,0.01 0,0 0,0 0.01,0.01 0,0 0,0.01 0,0.01 0,0 0.01,0.01 0,0 0,0.01 0,0.01 0.01,0 0,0.01 0,0.01 0,0.01 0,0 0,0.01 0.01,0.01 0,0 0,0.01 0,0.01 0,0.01 0,0 0,0.01 c 0,0.18 -0.16,0.29 -0.31,0.29 -0.2,0 -0.26,-0.15 -0.28,-0.23 l -0.77,-2.15 c -0.02,-0.05 -0.02,-0.07 -0.02,-0.07 0,-0.09 0.21,-0.13 0.22,-0.13 0.04,0 0.05,0.02 0.08,0.08 z"
   id="path8679"
   inkscape:connector-curvature="0" />
<path
   style="fill:#008000;stroke-width:0"
   d="m 233.93,708.92 0,0 0,0 0,0 0,0 0,0.01 0,0 0,0 0,0 0,0 0,0.01 0,0 0,0 0,0.01 0.01,0 0,0.01 0,0 0,0.01 0,0 0,0.01 0,0.01 0.01,0 0,0.01 0,0 0,0.01 0,0 0,0 0,0.01 0,0 0,0 0,0 0,0.01 0,0 0,0 0,0 0,0 0,0 0,0 0,0 0,0 0,0 c 0,0.04 -0.02,0.1 -0.11,0.1 -0.14,0 -0.71,-0.06 -0.89,-0.07 -0.05,-0.01 -0.15,-0.01 -0.15,-0.16 0,-0.1 0.1,-0.1 0.18,-0.1 0.33,0 0.33,-0.05 0.33,-0.1 0,-0.05 -0.01,-0.09 -0.02,-0.15 l -0.4,-1.59 c -0.15,0.23 -0.38,0.41 -0.72,0.41 v -0.19 c 0.49,0 0.62,-0.53 0.62,-0.61 0,-0.03 -0.01,-0.08 -0.02,-0.1 l -0.33,-1.3 c -0.05,-0.19 -0.2,-0.33 -0.35,-0.46 -0.07,-0.06 -0.34,-0.28 -0.64,-0.28 -0.26,0 -0.51,0.18 -0.51,0.67 0,0.37 0.2,1.14 0.36,1.42 0.32,0.55 0.68,0.66 0.87,0.66 v 0.19 c -0.89,0 -1.8,-0.98 -1.8,-1.98 0,-0.68 0.46,-1.16 1.06,-1.16 0.37,0 0.71,0.22 0.98,0.49 0.14,-0.42 0.54,-0.49 0.72,-0.49 0.25,0 0.43,0.16 0.55,0.37 0.16,0.27 0.25,0.67 0.25,0.7 0,0.09 -0.09,0.09 -0.12,0.09 -0.09,0 -0.1,-0.03 -0.15,-0.22 -0.08,-0.33 -0.21,-0.74 -0.51,-0.74 -0.18,0 -0.23,0.15 -0.23,0.34 0,0.13 0.02,0.2 0.04,0.28 z"
   id="path8681"
   inkscape:connector-curvature="0" />
</g>    <path
       inkscape:connector-curvature="0"
       id="path10333"
       d="m 848.27344,291.43809 174.58986,0"
       style="fill:none;stroke:#ff6600;stroke-width:2.99999952;stroke-linecap:butt;stroke-linejoin:miter;stroke-miterlimit:4;stroke-opacity:1;stroke-dasharray:none;marker-start:none;marker-end:url(#Arrow1Mstartm)" />
    <path
       style="font-size:40px;font-style:normal;font-weight:normal;line-height:125%;letter-spacing:0px;word-spacing:0px;fill:none;stroke:#800080;stroke-width:1.49999988000000010;stroke-miterlimit:4;stroke-dasharray:none;stroke-dashoffset:0;font-family:Sans"
       sodipodi:nodetypes="cscscssccccsccscccc"
       inkscape:connector-curvature="0"
       id="path11290"
       d="m 775.34552,337.92278 -1.5576,-3.05101 c -1.81718,-3.55953 -2.90151,-6.27513 -3.25293,-8.1468 -0.51905,-2.71778 -0.42048,-5.27963 0.29573,-7.68559 0.71623,-2.40599 2.10511,-4.51127 4.16666,-6.31582 2.06155,-1.80468 5.69568,-4.2638 10.90245,-7.37742 5.20679,-3.11362 8.66329,-5.55088 10.36968,-7.31165 1.70632,-1.76078 2.69042,-3.86395 2.95229,-6.30936 0.26184,-2.4454 -0.29209,-5.08359 -1.66183,-7.91455 l 7.09773,-4.17997 c 1.48586,2.76256 3.25176,4.68697 5.29777,5.77326 2.04598,1.08629 4.21884,1.33018 6.51857,0.73168 2.29969,-0.5985 5.88279,-2.30712 10.74932,-5.12585 4.86639,-2.81878 8.11529,-4.59029 9.7466,-5.3149 2.60529,-1.10917 4.87537,-1.65478 6.81024,-1.63685 1.93473,0.018 3.6786,0.42004 5.23164,1.20619 1.55285,0.78613 3.08078,2.05942 4.58371,3.81987 0.99483,1.20928 2.28965,3.37569 3.8844,6.49932 l 1.5576,3.051" />
    <path
       style="font-size:40px;font-style:normal;font-weight:normal;line-height:125%;letter-spacing:0px;word-spacing:0px;fill:none;stroke:#008000;stroke-width:1.49999988000000010;stroke-miterlimit:4;stroke-dasharray:none;stroke-dashoffset:0;font-family:Sans"
       sodipodi:nodetypes="cscscssccccsccscccc"
       inkscape:connector-curvature="0"
       id="path11290-5"
       d="m 857.26389,298.91556 1.81664,1.01612 c 2.11941,1.18549 3.54896,2.19852 4.28867,3.03905 1.07953,1.21737 1.73247,2.57622 1.95881,4.07661 0.22635,1.5004 -0.0484,3.08729 -0.8242,4.76066 -0.77579,1.67344 -2.34467,4.25035 -4.70666,7.73072 -2.36198,3.4804 -3.82678,5.98216 -4.39448,7.50523 -0.56767,1.52304 -0.59192,2.96331 -0.0727,4.32072 0.51922,1.35741 1.59821,2.52112 3.23696,3.4911 l -3.23775,4.71111 c -1.69173,-0.89292 -3.32356,-1.25217 -4.89554,-1.07775 -1.57194,0.1744 -2.9878,0.82959 -4.24755,1.96558 -1.25972,1.13597 -3.00612,3.30679 -5.23925,6.51253 -2.23302,3.20571 -3.75458,5.2889 -4.56455,6.24971 -1.30696,1.50963 -2.56305,2.60763 -3.76827,3.29398 -1.20519,0.68627 -2.39901,1.10556 -3.5815,1.25778 -1.1824,0.15217 -2.48512,0.0437 -3.90812,-0.32537 -0.95418,-0.26703 -2.36125,-0.92067 -4.22118,-1.96095 l -1.81663,-1.01613" />
    <path
       style="font-size:40px;font-style:normal;font-weight:normal;line-height:125%;letter-spacing:0px;word-spacing:0px;fill:none;stroke:#ff6600;stroke-width:1.49999976;stroke-miterlimit:4;stroke-dasharray:none;stroke-dashoffset:0;font-family:Sans"
       sodipodi:nodetypes="cscscssccccsccscccc"
       inkscape:connector-curvature="0"
       id="path11290-1"
       d="m 672.23523,275.83771 -0.56113,-4.06911 c -0.65467,-4.74733 -0.60808,-8.18847 0.13975,-10.32341 1.07007,-3.10529 3.14135,-5.68084 6.21401,-7.72671 3.07269,-2.04583 7.13917,-3.38016 12.19941,-4.0029 5.06038,-0.62288 13.44717,-0.97821 25.16055,-1.06601 11.71338,-0.0879 19.76297,-0.52693 24.14882,-1.31707 4.38575,-0.79018 7.71891,-2.36439 9.99937,-4.72253 2.2804,-2.35818 3.22853,-5.4025 2.8444,-9.13294 l 15.91979,-0.0534 c 0.64457,3.72959 2.41482,6.76477 5.31078,9.10556 2.89588,2.34076 6.64363,3.89114 11.24326,4.65111 4.59953,0.75992 12.33947,1.14586 23.21986,1.15779 10.88016,0.0111 18.06245,0.13328 21.54691,0.36367 5.52933,0.41758 10.03628,1.21419 13.52074,2.38987 3.48427,1.17563 6.33964,2.63207 8.56617,4.36937 2.22626,1.73715 4.04744,3.9604 5.46345,6.66968 0.9048,1.83856 1.64457,4.84084 2.21926,9.00687 l 0.56118,4.06911" />
    <g
       style="font-style:normal;font-variant:normal;font-weight:normal;font-stretch:normal;letter-spacing:normal;word-spacing:normal;text-anchor:start;fill:#0000ff;fill-opacity:1;fill-rule:evenodd;stroke:#000000;stroke-linecap:butt;stroke-linejoin:miter;stroke-miterlimit:10.43299961;stroke-opacity:1;stroke-dasharray:none;stroke-dashoffset:0"
       ns0:preamble=""
       ns0:text="$r(\\varphi_c)$"
       word-spacing="normal"
       letter-spacing="normal"
       font-size-adjust="none"
       font-stretch="normal"
       font-weight="normal"
       font-variant="normal"
       font-style="normal"
       stroke-miterlimit="10.433"
       xml:space="preserve"
       transform="matrix(3,0,0,-3,-171.42857,2505.7143)"
       id="g11561">
<path
   id="path11563"
   d="m 224.31,707.71 0,-0.01 -0.01,-0.02 0,-0.01 0,-0.02 -0.01,-0.03 -0.01,-0.03 -0.01,-0.03 0,-0.04 -0.01,-0.03 -0.01,-0.03 0,-0.01 -0.01,-0.02 0,-0.01 0,-0.02 0,-0.01 -0.01,-0.01 0,-0.02 0,-0.01 0,-0.01 -0.01,-0.01 0,-0.01 0,-0.01 0,-0.01 0,0 0,-0.01 0,-0.01 c 0,-0.18 0.14,-0.26 0.29,-0.26 0.12,0 0.29,0.07 0.37,0.27 0.02,0.04 0.35,1.39 0.39,1.57 0.08,0.33 0.26,1.03 0.32,1.3 0.04,0.12 0.32,0.59 0.56,0.81 0.08,0.07 0.37,0.33 0.79,0.33 0.26,0 0.41,-0.12 0.42,-0.12 -0.3,-0.05 -0.51,-0.29 -0.51,-0.55 0,-0.16 0.1,-0.35 0.37,-0.35 0.27,0 0.55,0.23 0.55,0.59 0,0.35 -0.32,0.65 -0.83,0.65 -0.64,0 -1.08,-0.49 -1.27,-0.77 -0.08,0.45 -0.44,0.77 -0.91,0.77 -0.45,0 -0.64,-0.39 -0.73,-0.57 -0.18,-0.34 -0.31,-0.93 -0.31,-0.96 0,-0.1 0.1,-0.1 0.12,-0.1 0.1,0 0.11,0.01 0.17,0.22 0.17,0.71 0.37,1.19 0.73,1.19 0.16,0 0.3,-0.08 0.3,-0.46 0,-0.21 -0.03,-0.32 -0.16,-0.83 z"
   inkscape:connector-curvature="0"
   style="fill:#0000ff;stroke-width:0" />
<path
   id="path11565"
   d="m 231.5,704.74 0,0.01 0,0 0,0 0,0.01 0,0 -0.01,0 0,0.01 0,0 0,0 0,0.01 0,0 -0.01,0.01 0,0 0,0.01 -0.01,0 0,0.01 -0.01,0.01 0,0 -0.01,0.01 0,0 0,0.01 -0.01,0 0,0 -0.01,0.01 0,0 0,0.01 -0.01,0 0,0.01 -0.01,0 0,0.01 -0.01,0 0,0.01 -0.01,0.01 -0.01,0 0,0.01 -0.01,0.01 -0.01,0 0,0.01 -0.01,0.01 -0.01,0 0,0.01 -0.01,0.01 c -1.25,1.25 -1.56,3.13 -1.56,4.65 0,1.73 0.37,3.46 1.6,4.7 0.13,0.12 0.13,0.14 0.13,0.17 0,0.07 -0.04,0.1 -0.1,0.1 -0.1,0 -1,-0.68 -1.58,-1.94 -0.51,-1.09 -0.63,-2.2 -0.63,-3.03 0,-0.78 0.11,-1.98 0.66,-3.1 0.59,-1.22 1.45,-1.87 1.55,-1.87 0.06,0 0.1,0.03 0.1,0.1 z"
   inkscape:connector-curvature="0"
   style="fill:#0000ff;stroke-width:0" />
<path
   id="path11567"
   d="m 233.77,705.44 0,-0.01 0,-0.01 -0.01,0 0,-0.01 0,-0.01 0,-0.01 -0.01,-0.01 0,-0.01 0,0 -0.01,-0.01 0,-0.01 0,-0.01 0,0 0,-0.01 -0.01,-0.01 0,0 0,-0.01 0,0 0,-0.01 0,0 0,-0.01 0,0 -0.01,-0.01 0,0 0,-0.01 0,-0.01 0,0 0,-0.01 0,-0.01 0,0 c 0,-0.22 0.19,-0.28 0.29,-0.28 0.05,0 0.27,0.03 0.37,0.26 0.03,0.08 0.08,0.41 0.34,1.82 0.09,-0.01 0.16,-0.02 0.33,-0.02 1.65,0 3.19,1.56 3.19,3.13 l -0.28,-0.22 c 0,-1.13 -1.28,-2.34 -2.82,-2.34 h 0 c -0.08,0 -0.1,0 -0.18,0.01 -0.12,0 -0.13,0.01 -0.13,0.04 0,0.02 0.17,0.93 0.2,1.07 0.31,1.28 1.09,2.23 1.97,2.23 0.69,0 0.96,-0.54 0.96,-1.01 l 0.28,0.22 c 0,0.77 -0.39,1.37 -1.14,1.37 -1.44,0 -2.04,-1.93 -2.63,-3.87 -1.08,0.2 -1.64,0.76 -1.64,1.47 0,0.28 0.23,1.37 0.83,2.06 0.08,0.09 0.08,0.11 0.08,0.13 0,0.04 -0.02,0.1 -0.12,0.1 -0.28,0 -1.05,-1.44 -1.05,-2.4 0,-0.93 0.66,-1.66 1.73,-1.91 z"
   inkscape:connector-curvature="0"
   style="fill:#0000ff;stroke-width:0" />
<path
   id="path11569"
   d="m 241.65,708.29 -0.03,0 -0.02,-0.01 -0.02,0 -0.02,-0.01 -0.02,-0.01 -0.02,0 -0.02,-0.01 -0.02,-0.01 -0.01,-0.01 -0.02,-0.01 -0.01,-0.01 -0.02,-0.02 -0.01,-0.01 -0.01,-0.01 -0.02,-0.01 -0.01,-0.02 -0.01,-0.01 -0.01,-0.02 -0.01,-0.01 0,-0.02 -0.01,-0.01 -0.01,-0.02 0,-0.01 -0.01,-0.02 0,-0.01 -0.01,-0.02 0,-0.01 -0.01,-0.02 0,-0.01 0,-0.02 0,-0.01 0,-0.01 c 0,-0.19 0.15,-0.26 0.27,-0.26 0.15,0 0.4,0.11 0.4,0.44 0,0.48 -0.54,0.61 -0.92,0.61 -1.05,0 -2.01,-0.96 -2.01,-1.93 0,-0.6 0.42,-1.21 1.29,-1.21 1.17,0 1.72,0.69 1.72,0.79 0,0.04 -0.06,0.12 -0.12,0.12 -0.04,0 -0.05,-0.02 -0.11,-0.07 -0.54,-0.64 -1.35,-0.64 -1.48,-0.64 -0.5,0 -0.73,0.34 -0.73,0.77 0,0.2 0.1,0.96 0.47,1.44 0.26,0.34 0.62,0.53 0.97,0.53 0.1,0 0.43,-0.01 0.61,-0.21 z"
   inkscape:connector-curvature="0"
   style="fill:#0000ff;stroke-width:0" />
<path
   id="path11571"
   d="m 245.53,709.61 0,0.07 0,0.08 0,0.08 -0.01,0.08 0,0.17 -0.02,0.17 -0.01,0.18 -0.02,0.19 -0.03,0.2 -0.03,0.2 -0.04,0.2 -0.05,0.21 -0.05,0.21 -0.06,0.21 -0.07,0.21 -0.08,0.21 -0.04,0.11 -0.05,0.11 -0.05,0.1 -0.05,0.11 c -0.59,1.22 -1.45,1.87 -1.55,1.87 -0.06,0 -0.1,-0.04 -0.1,-0.1 0,-0.03 0,-0.05 0.19,-0.23 0.97,-0.99 1.54,-2.57 1.54,-4.64 0,-1.7 -0.37,-3.45 -1.6,-4.7 -0.13,-0.12 -0.13,-0.14 -0.13,-0.17 0,-0.06 0.04,-0.1 0.1,-0.1 0.1,0 1,0.68 1.58,1.94 0.51,1.09 0.63,2.19 0.63,3.03 z"
   inkscape:connector-curvature="0"
   style="fill:#0000ff;stroke-width:0" />
</g>    <g
       ns0:preamble=""
       ns0:text="$r(\\varphi_c^{\'}$)"
       word-spacing="normal"
       letter-spacing="normal"
       font-size-adjust="none"
       font-stretch="normal"
       font-weight="normal"
       font-variant="normal"
       font-style="normal"
       stroke-miterlimit="10.433"
       xml:space="preserve"
       transform="matrix(3,0,0,-3,-50,2505.7143)"
       id="g11891"
       style="font-style:normal;font-variant:normal;font-weight:normal;font-stretch:normal;letter-spacing:normal;word-spacing:normal;text-anchor:start;fill:#800080;stroke:#000000;stroke-linecap:butt;stroke-linejoin:miter;stroke-miterlimit:10.43299961000000000;stroke-opacity:1;stroke-dasharray:none;stroke-dashoffset:0">
<path
   id="path11893"
   d="m 224.31,707.71 0,-0.01 -0.01,-0.02 0,-0.01 0,-0.02 -0.01,-0.03 -0.01,-0.03 -0.01,-0.03 0,-0.04 -0.01,-0.03 -0.01,-0.03 0,-0.01 -0.01,-0.02 0,-0.01 0,-0.02 0,-0.01 -0.01,-0.01 0,-0.02 0,-0.01 0,-0.01 -0.01,-0.01 0,-0.01 0,-0.01 0,-0.01 0,0 0,-0.01 0,-0.01 c 0,-0.18 0.14,-0.26 0.29,-0.26 0.12,0 0.29,0.07 0.37,0.27 0.02,0.04 0.35,1.39 0.39,1.57 0.08,0.33 0.26,1.03 0.32,1.3 0.04,0.12 0.32,0.59 0.56,0.81 0.08,0.07 0.37,0.33 0.79,0.33 0.26,0 0.41,-0.12 0.42,-0.12 -0.3,-0.05 -0.51,-0.29 -0.51,-0.55 0,-0.16 0.1,-0.35 0.37,-0.35 0.27,0 0.55,0.23 0.55,0.59 0,0.35 -0.32,0.65 -0.83,0.65 -0.64,0 -1.08,-0.49 -1.27,-0.77 -0.08,0.45 -0.44,0.77 -0.91,0.77 -0.45,0 -0.64,-0.39 -0.73,-0.57 -0.18,-0.34 -0.31,-0.93 -0.31,-0.96 0,-0.1 0.1,-0.1 0.12,-0.1 0.1,0 0.11,0.01 0.17,0.22 0.17,0.71 0.37,1.19 0.73,1.19 0.16,0 0.3,-0.08 0.3,-0.46 0,-0.21 -0.03,-0.32 -0.16,-0.83 z"
   inkscape:connector-curvature="0"
   style="fill:#800080;stroke-width:0" />
<path
   id="path11895"
   d="m 231.5,704.74 0,0.01 0,0 0,0 0,0.01 0,0 -0.01,0 0,0.01 0,0 0,0 0,0.01 0,0 -0.01,0.01 0,0 0,0.01 -0.01,0 0,0.01 -0.01,0.01 0,0 -0.01,0.01 0,0 0,0.01 -0.01,0 0,0 -0.01,0.01 0,0 0,0.01 -0.01,0 0,0.01 -0.01,0 0,0.01 -0.01,0 0,0.01 -0.01,0.01 -0.01,0 0,0.01 -0.01,0.01 -0.01,0 0,0.01 -0.01,0.01 -0.01,0 0,0.01 -0.01,0.01 c -1.25,1.25 -1.56,3.13 -1.56,4.65 0,1.73 0.37,3.46 1.6,4.7 0.13,0.12 0.13,0.14 0.13,0.17 0,0.07 -0.04,0.1 -0.1,0.1 -0.1,0 -1,-0.68 -1.58,-1.94 -0.51,-1.09 -0.63,-2.2 -0.63,-3.03 0,-0.78 0.11,-1.98 0.66,-3.1 0.59,-1.22 1.45,-1.87 1.55,-1.87 0.06,0 0.1,0.03 0.1,0.1 z"
   inkscape:connector-curvature="0"
   style="fill:#800080;stroke-width:0" />
<path
   id="path11897"
   d="m 233.77,705.44 0,-0.01 0,-0.01 -0.01,0 0,-0.01 0,-0.01 0,-0.01 -0.01,-0.01 0,-0.01 0,0 -0.01,-0.01 0,-0.01 0,-0.01 0,0 0,-0.01 -0.01,-0.01 0,0 0,-0.01 0,0 0,-0.01 0,0 0,-0.01 0,0 -0.01,-0.01 0,0 0,-0.01 0,-0.01 0,0 0,-0.01 0,-0.01 0,0 c 0,-0.22 0.19,-0.28 0.29,-0.28 0.05,0 0.27,0.03 0.37,0.26 0.03,0.08 0.08,0.41 0.34,1.82 0.09,-0.01 0.16,-0.02 0.33,-0.02 1.65,0 3.19,1.56 3.19,3.13 l -0.28,-0.22 c 0,-1.13 -1.28,-2.34 -2.82,-2.34 h 0 c -0.08,0 -0.1,0 -0.18,0.01 -0.12,0 -0.13,0.01 -0.13,0.04 0,0.02 0.17,0.93 0.2,1.07 0.31,1.28 1.09,2.23 1.97,2.23 0.69,0 0.96,-0.54 0.96,-1.01 l 0.28,0.22 c 0,0.77 -0.39,1.37 -1.14,1.37 -1.44,0 -2.04,-1.93 -2.63,-3.87 -1.08,0.2 -1.64,0.76 -1.64,1.47 0,0.28 0.23,1.37 0.83,2.06 0.08,0.09 0.08,0.11 0.08,0.13 0,0.04 -0.02,0.1 -0.12,0.1 -0.28,0 -1.05,-1.44 -1.05,-2.4 0,-0.93 0.66,-1.66 1.73,-1.91 z"
   inkscape:connector-curvature="0"
   style="fill:#800080;stroke-width:0" />
<path
   id="path11899"
   d="m 240.39,716.06 0,0 0,0 0,0 0,0 0,0 0,0 0,0.01 0,0 0,0 0.01,0.01 0,0 0,0 0,0.01 0,0 0.01,0.01 0,0.01 0,0 0,0.01 0.01,0 0,0.01 0,0.01 0,0 0,0.01 0.01,0.01 0,0.01 0,0 0,0.01 0,0.01 0,0 0,0.01 0,0.01 0.01,0.01 0,0 0,0.01 c 0,0.18 -0.16,0.29 -0.31,0.29 -0.21,0 -0.26,-0.15 -0.29,-0.23 l -0.76,-2.15 c -0.02,-0.05 -0.02,-0.07 -0.02,-0.07 0,-0.09 0.21,-0.13 0.21,-0.13 0.05,0 0.06,0.02 0.09,0.08 z"
   inkscape:connector-curvature="0"
   style="fill:#800080;stroke-width:0" />
<path
   id="path11901"
   d="m 241.65,707.33 -0.03,-0.01 -0.02,0 -0.02,-0.01 -0.02,-0.01 -0.02,0 -0.02,-0.01 -0.02,-0.01 -0.02,-0.01 -0.01,-0.01 -0.02,-0.01 -0.01,-0.01 -0.02,-0.02 -0.01,-0.01 -0.01,-0.01 -0.02,-0.01 -0.01,-0.02 -0.01,-0.01 -0.01,-0.02 -0.01,-0.01 0,-0.01 -0.01,-0.02 -0.01,-0.01 0,-0.02 -0.01,-0.01 0,-0.02 -0.01,-0.01 0,-0.02 -0.01,-0.02 0,-0.01 0,-0.01 0,-0.02 0,-0.01 c 0,-0.19 0.15,-0.26 0.27,-0.26 0.15,0 0.4,0.11 0.4,0.44 0,0.48 -0.54,0.61 -0.92,0.61 -1.05,0 -2.01,-0.96 -2.01,-1.93 0,-0.6 0.42,-1.21 1.29,-1.21 1.17,0 1.72,0.69 1.72,0.79 0,0.04 -0.06,0.12 -0.12,0.12 -0.04,0 -0.05,-0.02 -0.11,-0.07 -0.54,-0.64 -1.35,-0.64 -1.48,-0.64 -0.5,0 -0.73,0.34 -0.73,0.77 0,0.2 0.1,0.96 0.47,1.44 0.26,0.34 0.62,0.53 0.97,0.53 0.1,0 0.43,-0.01 0.61,-0.2 z"
   inkscape:connector-curvature="0"
   style="fill:#800080;stroke-width:0" />
<path
   id="path11903"
   d="m 245.53,709.61 0,0.07 0,0.08 0,0.08 -0.01,0.08 0,0.17 -0.02,0.17 -0.01,0.18 -0.02,0.19 -0.03,0.2 -0.03,0.2 -0.04,0.2 -0.05,0.21 -0.05,0.21 -0.06,0.21 -0.07,0.21 -0.08,0.21 -0.04,0.11 -0.05,0.11 -0.05,0.1 -0.05,0.11 c -0.59,1.22 -1.45,1.87 -1.55,1.87 -0.06,0 -0.1,-0.04 -0.1,-0.1 0,-0.03 0,-0.05 0.19,-0.23 0.97,-0.99 1.54,-2.57 1.54,-4.64 0,-1.7 -0.37,-3.45 -1.6,-4.7 -0.13,-0.12 -0.13,-0.14 -0.13,-0.17 0,-0.06 0.04,-0.1 0.1,-0.1 0.1,0 1,0.68 1.58,1.94 0.51,1.09 0.63,2.19 0.63,3.03 z"
   inkscape:connector-curvature="0"
   style="fill:#800080;stroke-width:0" />
</g>    <g
       ns0:preamble=""
       ns0:text="$y$"
       word-spacing="normal"
       letter-spacing="normal"
       font-size-adjust="none"
       font-stretch="normal"
       font-weight="normal"
       font-variant="normal"
       font-style="normal"
       stroke-miterlimit="10.433"
       xml:space="preserve"
       transform="matrix(3,0,0,-3,82.510514,2338.1531)"
       id="g12245"
       style="font-style:normal;font-variant:normal;font-weight:normal;font-stretch:normal;letter-spacing:normal;word-spacing:normal;text-anchor:start;fill:#ff6600;stroke:#ff6600;stroke-linecap:butt;stroke-linejoin:miter;stroke-miterlimit:10.43299961;stroke-opacity:1;stroke-dasharray:none;stroke-dashoffset:0">
<path
   id="path12247"
   d="m 228.27,710.91 0,0.01 0,0 0,0.01 0,0 0.01,0.02 0,0.01 0,0.01 0.01,0.01 0,0.01 0,0 0,0.01 0,0.01 0.01,0.01 0,0.01 0,0 0,0.01 0,0 0,0.01 0,0.01 0,0 0,0.01 0,0 0.01,0.01 0,0.01 0,0.01 0,0.01 0,0.01 0,0.01 0,0 0,0.01 c 0,0.18 -0.14,0.27 -0.29,0.27 -0.1,0 -0.26,-0.06 -0.35,-0.21 -0.02,-0.05 -0.1,-0.36 -0.14,-0.54 -0.07,-0.26 -0.14,-0.52 -0.2,-0.79 l -0.45,-1.79 c -0.03,-0.15 -0.46,-0.85 -1.12,-0.85 -0.51,0 -0.62,0.44 -0.62,0.81 0,0.46 0.17,1.07 0.51,1.95 0.16,0.4 0.2,0.51 0.2,0.71 0,0.45 -0.32,0.82 -0.82,0.82 -0.94,0 -1.31,-1.44 -1.31,-1.53 0,-0.1 0.1,-0.1 0.12,-0.1 0.1,0 0.11,0.02 0.16,0.18 0.27,0.93 0.67,1.23 1,1.23 0.08,0 0.25,0 0.25,-0.32 0,-0.25 -0.1,-0.51 -0.17,-0.7 -0.39,-1.05 -0.57,-1.62 -0.57,-2.08 0,-0.89 0.62,-1.18 1.21,-1.18 0.39,0 0.73,0.16 1.01,0.44 -0.13,-0.51 -0.25,-1 -0.65,-1.53 -0.26,-0.34 -0.64,-0.62 -1.1,-0.62 -0.13,0 -0.58,0.03 -0.75,0.41 0.16,0 0.29,0 0.43,0.12 0.1,0.09 0.19,0.22 0.19,0.41 0,0.31 -0.26,0.35 -0.36,0.35 -0.23,0 -0.56,-0.16 -0.56,-0.65 0,-0.49 0.44,-0.86 1.05,-0.86 1.03,0 2.05,0.9 2.33,2.02 z"
   inkscape:connector-curvature="0"
   style="fill:#ff6600;stroke:#ff6600;stroke-width:0" />
</g>    <text
       sodipodi:linespacing="125%"
       id="text12515"
       y="555.93359"
       x="405.69089"
       style="font-size:24.03430176px;font-style:normal;font-weight:normal;line-height:125%;letter-spacing:0px;word-spacing:0px;fill:#000000;fill-opacity:1;stroke:none;font-family:Sans"
       xml:space="preserve"><tspan
         y="555.93359"
         x="405.69089"
         id="tspan12517"
         sodipodi:role="line">A</tspan></text>
    <text
       sodipodi:linespacing="125%"
       id="text12519"
       y="305.21933"
       x="643.31219"
       style="font-size:24.03430176px;font-style:normal;font-weight:normal;line-height:125%;letter-spacing:0px;word-spacing:0px;fill:#000000;fill-opacity:1;stroke:none;font-family:Sans"
       xml:space="preserve"><tspan
         y="305.21933"
         x="643.31219"
         id="tspan12521"
         sodipodi:role="line">B</tspan></text>
    <text
       sodipodi:linespacing="125%"
       id="text12523"
       y="313.49973"
       x="865.18518"
       style="font-size:21.94003487px;font-style:normal;font-weight:normal;line-height:125%;letter-spacing:0px;word-spacing:0px;fill:#000000;fill-opacity:1;stroke:none;font-family:Sans"
       xml:space="preserve"><tspan
         y="313.49973"
         x="865.18518"
         id="tspan12525"
         sodipodi:role="line">C</tspan></text>
    <text
       sodipodi:linespacing="125%"
       id="text12523-7"
       y="377.63245"
       x="804.60712"
       style="font-size:21.94003487px;font-style:normal;font-weight:normal;line-height:125%;letter-spacing:0px;word-spacing:0px;fill:#000000;fill-opacity:1;stroke:none;font-family:Sans"
       xml:space="preserve"><tspan
         y="377.63245"
         x="804.60712"
         id="tspan12525-1"
         sodipodi:role="line">D</tspan></text>
    <text
       sodipodi:linespacing="125%"
       id="text12523-7-1"
       y="355.92538"
       x="774.09302"
       style="font-size:21.94003487px;font-style:normal;font-weight:normal;line-height:125%;letter-spacing:0px;word-spacing:0px;fill:#000000;fill-opacity:1;stroke:none;font-family:Sans"
       xml:space="preserve"><tspan
         y="355.92538"
         x="774.09302"
         id="tspan12525-1-5"
         sodipodi:role="line">E</tspan></text>
    <path
       sodipodi:nodetypes="cc"
       inkscape:connector-curvature="0"
       id="path12569"
       d="m 819.30568,225.6736 c -0.51737,16.4694 -10.03452,28.26886 -18.12314,47.11907"
       style="fill:none;stroke:#800080;stroke-width:1px;stroke-linecap:butt;stroke-linejoin:miter;stroke-opacity:1;marker-end:url(#Arrow1MendtW)" />
    <path
       sodipodi:nodetypes="cc"
       inkscape:connector-curvature="0"
       id="path12775"
       d="m 920.25126,357.24934 c -26.68419,9.55183 -43.41612,3.44372 -59.02739,-15.7029"
       style="stroke-linejoin:miter;marker-end:url(#Arrow1MendVpS);stroke-opacity:1;stroke:#008000;stroke-linecap:butt;stroke-width:1px;fill:none" />
    <path
       inkscape:export-ydpi="90"
       inkscape:export-xdpi="90"
       inkscape:export-filename="C:\Users\Jim\Documents\Latex_Docs\AtmosphericAttenuation\g6078.png"
       style="fill:none;stroke:#000000;stroke-width:1.99999988;stroke-linecap:butt;stroke-linejoin:miter;stroke-miterlimit:4;stroke-opacity:1;stroke-dasharray:none"
       d="m 830.40618,310.01414 c 0,0 -1.13096,1.07275 1.85387,4.03798 1.99406,1.98099 4.43309,1.83891 4.43309,1.83891"
       id="path6065-6"
       inkscape:connector-curvature="0"
       sodipodi:nodetypes="csc" />
    <g
       ns0:preamble=""
       ns0:text="$\\delta$"
       word-spacing="normal"
       letter-spacing="normal"
       font-size-adjust="none"
       font-stretch="normal"
       font-weight="normal"
       font-variant="normal"
       font-style="normal"
       stroke-miterlimit="10.433"
       xml:space="preserve"
       transform="matrix(1.8817904,0,0,-2.0192694,397.34225,1756.5415)"
       id="g13139"
       style="font-style:normal;font-variant:normal;font-weight:normal;font-stretch:normal;letter-spacing:normal;word-spacing:normal;text-anchor:start;fill:none;stroke:#000000;stroke-width:1.53899956;stroke-linecap:butt;stroke-linejoin:miter;stroke-miterlimit:10.43299961;stroke-opacity:1;stroke-dasharray:none;stroke-dashoffset:0">
<path
   id="path13141"
   d="m 226.06,711.47 -0.12,-0.03 -0.11,-0.04 -0.11,-0.04 -0.11,-0.05 -0.11,-0.05 -0.11,-0.06 -0.1,-0.06 -0.1,-0.07 -0.1,-0.07 -0.09,-0.07 -0.1,-0.08 -0.09,-0.08 -0.08,-0.09 -0.09,-0.08 -0.08,-0.1 -0.07,-0.09 -0.07,-0.1 -0.07,-0.1 -0.07,-0.1 -0.06,-0.1 -0.06,-0.11 -0.05,-0.11 -0.05,-0.1 -0.04,-0.11 -0.04,-0.11 -0.03,-0.12 -0.03,-0.11 -0.03,-0.11 -0.02,-0.12 -0.01,-0.11 -0.01,-0.11 0,-0.12 c 0,-0.95 0.64,-1.66 1.57,-1.66 v 0.21 c -0.54,0 -0.95,0.42 -0.95,1.18 0,0.62 0.37,2.49 1.71,2.85 h 0 c 0.25,-0.46 0.55,-1 0.55,-1.71 0,-0.66 -0.38,-2.32 -1.31,-2.32 v -0.21 c 1.17,0 1.99,1.56 1.99,2.93 0,0.9 -0.4,1.4 -0.73,1.84 -0.36,0.45 -0.95,1.2 -0.95,1.63 0,0.22 0.2,0.46 0.55,0.46 0.3,0 0.49,-0.13 0.7,-0.27 0.2,-0.12 0.4,-0.25 0.55,-0.25 0.25,0 0.4,0.24 0.4,0.4 0,0.22 -0.16,0.25 -0.52,0.33 -0.52,0.11 -0.65,0.11 -0.81,0.11 -0.78,0 -1.14,-0.43 -1.14,-1.03 0,-0.53 0.29,-1.09 0.6,-1.69 z"
   inkscape:connector-curvature="0"
   style="fill:#000000;stroke-width:0" />
</g>    <g
       style="font-style:normal;font-variant:normal;font-weight:normal;font-stretch:normal;letter-spacing:normal;word-spacing:normal;text-anchor:start;fill:#008000;fill-opacity:1;fill-rule:evenodd;stroke:#800080;stroke-linecap:butt;stroke-linejoin:miter;stroke-miterlimit:10.43299961000000000;stroke-opacity:1;stroke-dasharray:none;stroke-dashoffset:0"
       ns0:preamble=""
       ns0:text="$z$"
       word-spacing="normal"
       letter-spacing="normal"
       font-size-adjust="none"
       font-stretch="normal"
       font-weight="normal"
       font-variant="normal"
       font-style="normal"
       stroke-miterlimit="10.433"
       xml:space="preserve"
       transform="matrix(3,0,0,-3,252.04005,2482.5328)"
       id="g13764">
<path
   id="path13766"
   d="m 224.76,707.95 0.04,0.05 0.05,0.05 0.05,0.05 0.05,0.05 0.04,0.05 0.04,0.04 0.05,0.04 0.04,0.05 0.04,0.04 0.04,0.04 0.03,0.03 0.04,0.04 0.04,0.04 0.03,0.03 0.07,0.07 0.07,0.06 0.07,0.06 0.06,0.06 0.07,0.06 0.13,0.11 0.06,0.05 0.07,0.06 c 0,0.01 0.62,0.54 0.97,0.9 0.95,0.92 1.17,1.4 1.17,1.44 0,0.1 -0.09,0.1 -0.11,0.1 -0.07,0 -0.1,-0.02 -0.15,-0.11 -0.3,-0.48 -0.51,-0.64 -0.75,-0.64 -0.23,0 -0.36,0.15 -0.5,0.32 -0.19,0.23 -0.36,0.43 -0.69,0.43 -0.75,0 -1.2,-0.93 -1.2,-1.14 0,-0.05 0.03,-0.11 0.11,-0.11 0.09,0 0.11,0.05 0.13,0.11 0.19,0.46 0.77,0.47 0.85,0.47 0.21,0 0.4,-0.07 0.63,-0.15 0.39,-0.15 0.5,-0.15 0.76,-0.15 -0.36,-0.42 -1.19,-1.14 -1.38,-1.3 l -0.9,-0.83 c -0.67,-0.67 -1.02,-1.24 -1.02,-1.31 0,-0.09 0.1,-0.09 0.12,-0.09 0.08,0 0.1,0.02 0.16,0.13 0.23,0.34 0.53,0.61 0.84,0.61 0.23,0 0.33,-0.09 0.58,-0.38 0.17,-0.21 0.35,-0.36 0.64,-0.36 0.98,0 1.56,1.26 1.56,1.53 0,0.04 -0.04,0.1 -0.12,0.1 -0.09,0 -0.11,-0.06 -0.14,-0.13 -0.23,-0.65 -0.86,-0.84 -1.19,-0.84 -0.2,0 -0.38,0.06 -0.59,0.13 -0.34,0.13 -0.49,0.17 -0.7,0.17 -0.02,0 -0.17,0 -0.26,-0.03 z"
   inkscape:connector-curvature="0"
   style="fill:#008000;stroke-width:0" />
</g>    <g
       style="font-style:normal;font-variant:normal;font-weight:normal;font-stretch:normal;letter-spacing:normal;word-spacing:normal;text-anchor:start;fill:#800080;fill-opacity:1;fill-rule:evenodd;stroke:#000000;stroke-width:1.11229348;stroke-linecap:butt;stroke-linejoin:miter;stroke-miterlimit:10.43299961;stroke-opacity:1;stroke-dasharray:none;stroke-dashoffset:0"
       ns0:preamble=""
       ns0:text="$\\tilde{z}$"
       word-spacing="normal"
       letter-spacing="normal"
       font-size-adjust="none"
       font-stretch="normal"
       font-weight="normal"
       font-variant="normal"
       font-style="normal"
       stroke-miterlimit="10.433"
       xml:space="preserve"
       transform="matrix(2.4248364,0,0,-3,278.25157,2344.2858)"
       id="g14185">
<path
   id="path14187"
   d="m 228.17,713.61 -0.16,0.15 c 0,-0.01 -0.38,-0.48 -0.81,-0.48 -0.23,0 -0.48,0.15 -0.65,0.25 -0.27,0.16 -0.45,0.23 -0.62,0.23 -0.38,0 -0.57,-0.22 -1.07,-0.77 l 0.16,-0.15 c 0,0.01 0.37,0.47 0.81,0.47 0.23,0 0.48,-0.15 0.65,-0.24 0.27,-0.16 0.45,-0.23 0.62,-0.23 0.37,0 0.56,0.21 1.07,0.77 z"
   inkscape:connector-curvature="0"
   style="fill:#800080;stroke-width:0" />
<path
   id="path14189"
   d="m 224.76,707.95 0.04,0.05 0.05,0.05 0.05,0.05 0.05,0.05 0.04,0.05 0.04,0.04 0.05,0.04 0.04,0.05 0.04,0.04 0.04,0.04 0.03,0.03 0.04,0.04 0.04,0.04 0.03,0.03 0.07,0.07 0.07,0.06 0.07,0.06 0.06,0.06 0.07,0.06 0.13,0.11 0.06,0.05 0.07,0.06 c 0,0.01 0.62,0.54 0.97,0.9 0.95,0.92 1.17,1.4 1.17,1.44 0,0.1 -0.09,0.1 -0.11,0.1 -0.07,0 -0.1,-0.02 -0.15,-0.11 -0.3,-0.48 -0.51,-0.64 -0.75,-0.64 -0.23,0 -0.36,0.15 -0.5,0.32 -0.19,0.23 -0.36,0.43 -0.69,0.43 -0.75,0 -1.2,-0.93 -1.2,-1.14 0,-0.05 0.03,-0.11 0.11,-0.11 0.09,0 0.11,0.05 0.13,0.11 0.19,0.46 0.77,0.47 0.85,0.47 0.21,0 0.4,-0.07 0.63,-0.15 0.39,-0.15 0.5,-0.15 0.76,-0.15 -0.36,-0.42 -1.19,-1.14 -1.38,-1.3 l -0.9,-0.83 c -0.67,-0.67 -1.02,-1.24 -1.02,-1.31 0,-0.09 0.1,-0.09 0.12,-0.09 0.08,0 0.1,0.02 0.16,0.13 0.23,0.34 0.53,0.61 0.84,0.61 0.23,0 0.33,-0.09 0.58,-0.38 0.17,-0.21 0.35,-0.36 0.64,-0.36 0.98,0 1.56,1.26 1.56,1.53 0,0.04 -0.04,0.1 -0.12,0.1 -0.09,0 -0.11,-0.06 -0.14,-0.13 -0.23,-0.65 -0.86,-0.84 -1.19,-0.84 -0.2,0 -0.38,0.06 -0.59,0.13 -0.34,0.13 -0.49,0.17 -0.7,0.17 -0.02,0 -0.17,0 -0.26,-0.03 z"
   inkscape:connector-curvature="0"
   style="fill:#800080;stroke-width:0" />
</g>    <rect
       style="opacity:0.94690264999999996;fill:none;stroke:#008000;stroke-width:1.50000000000000000;stroke-linecap:butt;stroke-linejoin:miter;stroke-miterlimit:4;stroke-opacity:1;stroke-dasharray:4.49999995000000030, 1.49999999000000010;stroke-dashoffset:0"
       id="rect14298"
       width="9.0913725"
       height="9.0913725"
       x="860.1532"
       y="-161.63945"
       transform="matrix(0.83525987,0.54985539,-0.54985539,0.83525987,0,0)" />
  </g>
</svg>
