<?xml version="1.0" encoding="UTF-8" standalone="no"?>
<!-- Created with Inkscape (http://www.inkscape.org/) -->

<svg
   xmlns:dc="http://purl.org/dc/elements/1.1/"
   xmlns:cc="http://creativecommons.org/ns#"
   xmlns:rdf="http://www.w3.org/1999/02/22-rdf-syntax-ns#"
   xmlns:svg="http://www.w3.org/2000/svg"
   xmlns="http://www.w3.org/2000/svg"
   xmlns:inkscape="http://www.inkscape.org/namespaces/inkscape"
   version="1.2"
   width="744.09448"
   height="1052.3622"
   id="svg2">
  <defs
     id="defs4">
    <inkscape:path-effect
       effect="spiro"
       id="path-effect5459" />
    <marker
       refX="0"
       refY="0"
       orient="auto"
       id="Arrow1Lstart"
       style="overflow:visible">
      <path
         d="M 0,0 5,-5 -12.5,0 5,5 0,0 z"
         transform="matrix(0.8,0,0,0.8,10,0)"
         id="path3846"
         style="fill-rule:evenodd;stroke:#000000;stroke-width:1pt;marker-start:none" />
    </marker>
    <marker
       refX="0"
       refY="0"
       orient="auto"
       id="Arrow1Lend"
       style="overflow:visible">
      <path
         d="M 0,0 5,-5 -12.5,0 5,5 0,0 z"
         transform="matrix(-0.8,0,0,-0.8,-10,0)"
         id="path3849"
         style="fill-rule:evenodd;stroke:#000000;stroke-width:1pt;marker-start:none" />
    </marker>
    <inkscape:path-effect
       effect="spiro"
       id="path-effect3821" />
    <marker
       refX="0"
       refY="0"
       orient="auto"
       id="Arrow1Lstart-1"
       style="overflow:visible">
      <path
         d="M 0,0 5,-5 -12.5,0 5,5 0,0 z"
         transform="matrix(0.8,0,0,0.8,10,0)"
         id="path3846-1"
         style="fill-rule:evenodd;stroke:#000000;stroke-width:1pt;marker-start:none" />
    </marker>
    <inkscape:path-effect
       effect="spiro"
       id="path-effect3821-5" />
  </defs>
  <metadata
     id="metadata7">
    <rdf:RDF>
      <cc:Work
         rdf:about="">
        <dc:format>image/svg+xml</dc:format>
        <dc:type
           rdf:resource="http://purl.org/dc/dcmitype/StillImage" />
        <dc:title></dc:title>
      </cc:Work>
    </rdf:RDF>
  </metadata>
  <g
     id="layer1"
     style="display:inline">
    <path
       d="m 585.71428,468.07648 a 195.71428,195.71428 0 1 1 -391.42856,0 195.71428,195.71428 0 1 1 391.42856,0 z"
       transform="translate(27.272725,-76.136363)"
       id="path2991"
       style="opacity:0.98999999;fill:#ffffff;stroke:#000000;stroke-width:2.20000005;stroke-miterlimit:4;stroke-opacity:1;stroke-dasharray:none" />
    <path
       d="m 259.0909,297.81672 -95.61186,-52.57721 -2.27272,-109.09091 93.33913,-56.513692 95.61186,52.577212 2.27273,109.09091 z"
       transform="matrix(1.7839596,0,0,1.8016197,-41.107804,52.122747)"
       id="path2995"
       style="opacity:0.98999999;fill:#ffffff;stroke:#ff0000;stroke-width:1.11559343;stroke-miterlimit:4;stroke-opacity:1;stroke-dasharray:none" />
    <path
       d="m 523.86365,235.8849 a 6.25,6.25 0 1 1 -12.5,0 6.25,6.25 0 1 1 12.5,0 z"
       transform="translate(-104.54546,-40.90909)"
       id="path3001"
       style="opacity:0.98999999;fill:#ff0000;stroke:#000000;stroke-width:0.1;stroke-miterlimit:4;stroke-opacity:1;stroke-dasharray:none" />
    <path
       d="m 523.86365,235.8849 a 6.25,6.25 0 1 1 -12.5,0 6.25,6.25 0 1 1 12.5,0 z"
       transform="translate(-268.75002,61.931826)"
       id="path3001-1"
       style="opacity:0.98999999;fill:#ff0000;stroke:#000000;stroke-width:0.1;stroke-miterlimit:4;stroke-opacity:1;stroke-dasharray:none;display:inline" />
    <path
       d="m 523.86365,235.8849 a 6.25,6.25 0 1 1 -12.5,0 6.25,6.25 0 1 1 12.5,0 z"
       transform="translate(65.340897,53.97728)"
       id="path3001-7"
       style="opacity:0.98999999;fill:#ff0000;stroke:#000000;stroke-width:0.1;stroke-miterlimit:4;stroke-opacity:1;stroke-dasharray:none;display:inline" />
    <path
       d="m 523.86365,235.8849 a 6.25,6.25 0 1 1 -12.5,0 6.25,6.25 0 1 1 12.5,0 z"
       transform="translate(-266.47729,256.25)"
       id="path3001-4"
       style="opacity:0.98999999;fill:#ff0000;stroke:#000000;stroke-width:0.1;stroke-miterlimit:4;stroke-opacity:1;stroke-dasharray:none;display:inline" />
    <path
       d="m 523.86365,235.8849 a 6.25,6.25 0 1 1 -12.5,0 6.25,6.25 0 1 1 12.5,0 z"
       transform="translate(-98.295466,350.56818)"
       id="path3001-0"
       style="opacity:0.98999999;fill:#ff0000;stroke:#000000;stroke-width:0.1;stroke-miterlimit:4;stroke-opacity:1;stroke-dasharray:none;display:inline" />
    <path
       d="m 523.86365,235.8849 a 6.25,6.25 0 1 1 -12.5,0 6.25,6.25 0 1 1 12.5,0 z"
       transform="translate(68.749986,250.56818)"
       id="path3001-9"
       style="opacity:0.98999999;fill:#ff0000;stroke:#000000;stroke-width:0.1;stroke-miterlimit:4;stroke-opacity:1;stroke-dasharray:none;display:inline" />
    <path
       d="m 414.64601,197.14428 2.52616,192.25398"
       id="path3819"
       style="fill:none;stroke:#000000;stroke-width:1px;stroke-linecap:butt;stroke-linejoin:miter;stroke-opacity:1;marker-start:url(#Arrow1Lstart);marker-end:none" />
    <flowRoot
       transform="translate(276.13635,-24.999999)"
       id="flowRoot3827"
       xml:space="preserve"
       style="font-size:40px;font-style:normal;font-weight:normal;line-height:125%;letter-spacing:0px;word-spacing:0px;fill:#000000;fill-opacity:1;stroke:none;font-family:Sans"><flowRegion
         id="flowRegion3829"><rect
           width="126.13637"
           height="97.727272"
           x="153.40909"
           y="337.58945"
           id="rect3831" /></flowRegion><flowPara
         id="flowPara3833"
         style="font-size:32px;font-style:oblique;line-height:125.99999905%;-inkscape-font-specification:Sans Oblique">R<flowSpan
   id="flowSpan10628"
   style="font-size:65.00091553%;baseline-shift:sub">k</flowSpan></flowPara></flowRoot>    <path
       d="m 194.31818,301.22583 a 82.954544,82.954544 0 1 1 -165.909084,0 82.954544,82.954544 0 1 1 165.909084,0 z"
       transform="matrix(1.171811,0,0,1.171811,117.88923,-53.54939)"
       id="path5387"
       style="opacity:0.15;fill:#ff0000;stroke:#ff0000;stroke-width:0.5;stroke-miterlimit:4;stroke-opacity:1;stroke-dasharray:none" />
    <path
       d="m 194.31818,301.22583 a 82.954544,82.954544 0 1 1 -165.909084,0 82.954544,82.954544 0 1 1 165.909084,0 z"
       transform="matrix(1.171811,0,0,1.171811,282.66193,-156.97233)"
       id="path5387-4"
       style="opacity:0.15;fill:#ff0000;stroke:#ff0000;stroke-width:0.5;stroke-miterlimit:4;stroke-opacity:1;stroke-dasharray:none;display:inline" />
    <path
       d="m 194.31818,301.22583 a 82.954544,82.954544 0 1 1 -165.909084,0 82.954544,82.954544 0 1 1 165.909084,0 z"
       transform="matrix(1.171811,0,0,1.171811,450.18468,-59.708468)"
       id="path5387-4-8"
       style="opacity:0.15;fill:#ff0000;stroke:#ff0000;stroke-width:0.5;stroke-miterlimit:4;stroke-opacity:1;stroke-dasharray:none;display:inline" />
    <path
       d="m 194.31818,301.22583 a 82.954544,82.954544 0 1 1 -165.909084,0 82.954544,82.954544 0 1 1 165.909084,0 z"
       transform="matrix(1.171811,0,0,1.171811,459.27558,134.60971)"
       id="path5387-4-8-8"
       style="opacity:0.15;fill:#ff0000;stroke:#ff0000;stroke-width:0.5;stroke-miterlimit:4;stroke-opacity:1;stroke-dasharray:none;display:inline" />
    <path
       d="m 194.31818,301.22583 a 82.954544,82.954544 0 1 1 -165.909084,0 82.954544,82.954544 0 1 1 165.909084,0 z"
       transform="matrix(1.171811,0,0,1.171811,289.95739,231.20063)"
       id="path5387-4-8-2"
       style="opacity:0.15;fill:#ff0000;stroke:#ff0000;stroke-width:0.5;stroke-miterlimit:4;stroke-opacity:1;stroke-dasharray:none;display:inline" />
    <path
       d="m 194.31818,301.22583 a 82.954544,82.954544 0 1 1 -165.909084,0 82.954544,82.954544 0 1 1 165.909084,0 z"
       transform="matrix(1.171811,0,0,1.171811,118.36649,141.4279)"
       id="path5387-4-8-4"
       style="opacity:0.15;fill:#ff0000;stroke:#ff0000;stroke-width:0.5;stroke-miterlimit:4;stroke-opacity:1;stroke-dasharray:none;display:inline" />
    <path
       d="M 415.90909,388.72581 329.54545,245.544"
       id="path5457"
       style="fill:none;stroke:#000000;stroke-width:1;stroke-linecap:butt;stroke-linejoin:miter;stroke-miterlimit:4;stroke-opacity:1;stroke-dasharray:12, 12;stroke-dashoffset:0" />
    <path
       d="m 523.86365,235.8849 a 6.25,6.25 0 1 1 -12.5,0 6.25,6.25 0 1 1 12.5,0 z"
       transform="translate(-100.56819,152.84091)"
       id="path3001-1-5"
       style="opacity:0.98999999;fill:#000000;stroke:#000000;stroke-width:0.1;stroke-miterlimit:4;stroke-opacity:1;stroke-dasharray:none;display:inline" />
    <text
       x="392.04544"
       y="346.68036"
       id="text6223"
       xml:space="preserve"
       style="font-size:40px;font-style:normal;font-weight:normal;line-height:125%;letter-spacing:0px;word-spacing:0px;fill:#0000ff;fill-opacity:1;stroke:none;font-family:Sans"><tspan
         x="392.04544"
         y="346.68036"
         id="tspan6225"
         style="font-size:30px">θ</tspan></text>
    <path
       d="m 371.59091,318.27127 c 9.49211,-14.52571 20.98395,-26.42796 45.45454,-17.04546"
       id="path6235"
       style="fill:none;stroke:#0000ff;stroke-width:1px;stroke-linecap:butt;stroke-linejoin:miter;stroke-opacity:1" />
    <text
       x="373.86362"
       y="250.08946"
       id="text6239"
       xml:space="preserve"
       style="font-size:40px;font-style:normal;font-weight:normal;line-height:125%;letter-spacing:0px;word-spacing:0px;fill:#000000;fill-opacity:1;stroke:none;font-family:Sans"><tspan
         x="373.86362"
         y="250.08946"
         id="tspan6241"
         style="font-style:oblique;fill:#ff0000;-inkscape-font-specification:Sans Oblique">r<tspan
   id="tspan6243"
   style="font-size:65.00091553%;font-style:oblique;baseline-shift:sub;fill:#ff0000;-inkscape-font-specification:Sans Oblique">b</tspan></tspan></text>
    <text
       x="294.41553"
       y="297.45166"
       id="text6239-5"
       xml:space="preserve"
       style="font-size:40px;font-style:normal;font-weight:normal;line-height:125%;letter-spacing:0px;word-spacing:0px;fill:#000000;fill-opacity:1;stroke:none;display:inline;font-family:Sans"><tspan
         x="294.41553"
         y="297.45166"
         id="tspan6241-1"
         style="font-style:oblique;fill:#ff0000;-inkscape-font-specification:Sans Oblique">r<tspan
   id="tspan6243-7"
   style="font-size:65.00091553%;font-style:oblique;baseline-shift:sub;fill:#ff0000;-inkscape-font-specification:Sans Oblique">b</tspan></tspan></text>
    <path
       d="m 249.14389,296.68557 167.76109,90.29446"
       id="path3819-2"
       style="fill:none;stroke:#000000;stroke-width:1.12328327px;stroke-linecap:butt;stroke-linejoin:miter;stroke-opacity:1;marker-start:url(#Arrow1Lstart);marker-end:none;display:inline" />
    <text
       x="571.59088"
       y="244.40764"
       id="text6318"
       xml:space="preserve"
       style="font-size:40px;font-style:normal;font-weight:normal;line-height:125%;letter-spacing:0px;word-spacing:0px;fill:#000000;fill-opacity:1;stroke:none;font-family:Sans"><tspan
         x="571.59088"
         y="244.40764"
         id="tspan6320"
         style="font-size:32px;fill:#ff0000">golfball</tspan></text>
    <flowRoot
       transform="translate(10.227273,35.227273)"
       id="flowRoot6322"
       xml:space="preserve"
       style="font-size:40px;font-style:normal;font-weight:normal;line-height:125%;letter-spacing:0px;word-spacing:0px;fill:#000000;fill-opacity:1;stroke:none;font-family:Sans"><flowRegion
         id="flowRegion6324"><rect
           width="136.36363"
           height="240.90909"
           x="29.545454"
           y="365.99854"
           id="rect6326" /></flowRegion><flowPara
         id="flowPara6328"
         style="font-size:28px">ring of radius <flowSpan
   id="flowSpan10634"
   style="font-style:oblique;-inkscape-font-specification:Sans Oblique">R</flowSpan><flowSpan
   id="flowSpan10632"
   style="font-size:65.00091553%;font-style:oblique;baseline-shift:sub;-inkscape-font-specification:Sans Oblique">k</flowSpan></flowPara></flowRoot>    <flowRoot
       transform="translate(26.136364,4.5454545)"
       id="flowRoot6330"
       xml:space="preserve"
       style="font-size:40px;font-style:normal;font-weight:normal;line-height:125%;letter-spacing:0px;word-spacing:0px;fill:#000000;fill-opacity:1;stroke:none;font-family:Sans"><flowRegion
         id="flowRegion6332"><rect
           width="90.909088"
           height="103.40909"
           x="6.818182"
           y="388.72583"
           id="rect6334" /></flowRegion><flowPara
         id="flowPara6336"></flowPara></flowRoot>    <path
       d="M 223.42731,349.38941 C 56.094773,353.18782 81.042509,403.36583 81.123808,392.83495"
       id="path6340"
       style="fill:none;stroke:#000000;stroke-width:1.42278337;stroke-linecap:butt;stroke-linejoin:miter;stroke-miterlimit:4;stroke-opacity:1;stroke-dasharray:none;marker-start:url(#Arrow1Lstart-1);marker-mid:none;marker-end:none" />
    <path
       d="m 340.79209,260.43373 12.734,-8.03255 -9.33827,-16.06509"
       id="path10622"
       style="fill:none;stroke:#000000;stroke-width:0.7659933px;stroke-linecap:butt;stroke-linejoin:miter;stroke-opacity:1" />
    <text
       x="328.40909"
       y="420.54398"
       id="text10624"
       xml:space="preserve"
       style="font-size:40px;font-style:normal;font-weight:normal;line-height:125%;letter-spacing:0px;word-spacing:0px;fill:#000000;fill-opacity:1;stroke:none;font-family:Sans"><tspan
         x="328.40909"
         y="420.54398"
         id="tspan10626"
         style="font-size:22px">center of container</tspan></text>
  </g>
</svg>
